# 3ds Max Wavefront OBJ Exporter v0.99 - (c)2007 guruware
# File Created: 27.11.2025 11:42:13

mtllib Wand.mtl

#
# object Cylinder001
#

v  0.1480 0.0000 0.0539
v  0.1206 0.0000 0.1012
v  0.0787 0.0000 0.1364
v  0.0273 0.0000 0.1551
v  -0.0273 0.0000 0.1551
v  -0.0787 0.0000 0.1364
v  -0.1206 0.0000 0.1012
v  -0.1480 0.0000 0.0539
v  -0.1575 0.0000 -0.0000
v  -0.1480 0.0000 -0.0539
v  -0.1206 0.0000 -0.1012
v  -0.0787 0.0000 -0.1364
v  -0.0273 0.0000 -0.1551
v  0.0273 0.0000 -0.1551
v  0.0787 0.0000 -0.1364
v  0.1206 0.0000 -0.1012
v  0.1480 0.0000 -0.0539
v  0.1575 0.0000 -0.0000
v  0.1480 2.6828 -0.0539
v  0.1575 2.6828 -0.0000
v  0.1206 2.6828 -0.1012
v  0.0787 2.6828 -0.1364
v  0.0273 2.6828 -0.1551
v  -0.0273 2.6828 -0.1551
v  -0.0787 2.6828 -0.1364
v  -0.1206 2.6828 -0.1012
v  -0.1480 2.6828 -0.0539
v  -0.1575 2.6828 -0.0000
v  -0.1480 2.6828 0.0539
v  -0.1206 2.6828 0.1012
v  -0.0787 2.6828 0.1364
v  -0.0273 2.6828 0.1551
v  0.0273 2.6828 0.1551
v  0.0787 2.6828 0.1364
v  0.1206 2.6828 0.1012
v  0.1480 2.6828 0.0539
v  0.0301 10.8358 -0.0109
v  0.0320 10.8358 0.0000
v  0.0245 10.8358 -0.0206
v  0.0160 10.8358 -0.0277
v  0.0056 10.8358 -0.0315
v  -0.0056 10.8358 -0.0315
v  -0.0160 10.8358 -0.0277
v  -0.0245 10.8358 -0.0206
v  -0.0301 10.8358 -0.0109
v  -0.0320 10.8358 0.0000
v  -0.0301 10.8358 0.0109
v  -0.0245 10.8358 0.0206
v  -0.0160 10.8358 0.0277
v  -0.0056 10.8358 0.0315
v  0.0056 10.8358 0.0315
v  0.0160 10.8358 0.0277
v  0.0245 10.8358 0.0206
v  0.0301 10.8358 0.0109
# 54 vertices

vn 0.6976 -0.6700 0.2539
vn 0.5687 -0.6700 0.4772
vn 0.3712 -0.6700 0.6429
vn 0.1289 -0.6700 0.7311
vn -0.1289 -0.6700 0.7311
vn -0.3712 -0.6700 0.6429
vn -0.5687 -0.6700 0.4772
vn -0.6976 -0.6700 0.2539
vn -0.7423 -0.6701 0.0000
vn -0.6976 -0.6700 -0.2539
vn -0.5687 -0.6700 -0.4772
vn -0.3712 -0.6701 -0.6428
vn -0.1289 -0.6700 -0.7311
vn 0.1289 -0.6700 -0.7311
vn 0.3712 -0.6700 -0.6429
vn 0.5687 -0.6700 -0.4772
vn 0.6976 -0.6700 -0.2539
vn 0.7423 -0.6701 0.0000
vn 0.9397 0.0077 -0.3420
vn 1.0000 0.0077 -0.0000
vn 0.7660 0.0077 -0.6428
vn 0.5000 0.0077 -0.8660
vn 0.1736 0.0077 -0.9848
vn -0.1736 0.0077 -0.9848
vn -0.5000 0.0077 -0.8660
vn -0.7660 0.0077 -0.6428
vn -0.9397 0.0077 -0.3420
vn -1.0000 0.0077 -0.0000
vn -0.9397 0.0077 0.3420
vn -0.7660 0.0077 0.6428
vn -0.5000 0.0077 0.8660
vn -0.1736 0.0077 0.9848
vn 0.1736 0.0077 0.9848
vn 0.5000 0.0077 0.8660
vn 0.7660 0.0077 0.6428
vn 0.9397 0.0077 0.3420
vn 0.6927 0.6757 -0.2521
vn 0.7372 0.6757 0.0000
vn 0.5647 0.6757 -0.4739
vn 0.3686 0.6757 -0.6384
vn 0.1280 0.6757 -0.7260
vn -0.1280 0.6757 -0.7260
vn -0.3686 0.6757 -0.6384
vn -0.5647 0.6757 -0.4739
vn -0.6927 0.6757 -0.2521
vn -0.7372 0.6757 -0.0000
vn -0.6927 0.6757 0.2521
vn -0.5647 0.6757 0.4739
vn -0.3686 0.6757 0.6384
vn -0.1280 0.6757 0.7260
vn 0.1280 0.6757 0.7260
vn 0.3686 0.6757 0.6384
vn 0.5647 0.6757 0.4739
vn 0.6927 0.6757 0.2521
# 54 vertex normals

vt 0.3400 0.0000 -0.0000
vt 0.1953 0.0000 -0.3473
vt 0.0874 0.0000 -0.6527
vt 0.0292 0.0000 -0.8794
vt 0.0278 0.0000 -1.0000
vt 0.0833 0.0000 -1.0000
vt 0.1891 0.0000 -0.8794
vt 0.3325 0.0000 -0.6527
vt 0.4960 0.0000 -0.3473
vt 0.6600 0.0000 -0.0000
vt 0.8047 0.0000 0.3473
vt 0.9126 0.0000 0.6527
vt 0.9708 0.0000 0.8794
vt 0.9722 0.0000 1.0000
vt 0.9167 0.0000 1.0000
vt 0.8611 0.0000 1.0000
vt 0.8056 0.0000 1.0000
vt 0.7500 0.0000 1.0000
vt 0.8056 0.5000 1.0000
vt 0.7500 0.5000 1.0000
vt 0.8611 0.5000 1.0000
vt 0.9167 0.5000 1.0000
vt 0.9722 0.5000 1.0000
vt -0.0278 0.0000 1.0000
vt 0.0278 0.0000 1.0000
vt 0.0278 0.5000 1.0000
vt -0.0278 0.5000 1.0000
vt 0.0833 0.0000 1.0000
vt 0.0833 0.5000 1.0000
vt 0.1389 0.0000 1.0000
vt 0.1389 0.5000 1.0000
vt 0.1944 0.0000 1.0000
vt 0.1944 0.5000 1.0000
vt 0.2500 0.0000 1.0000
vt 0.2500 0.5000 1.0000
vt 0.3056 0.0000 1.0000
vt 0.3056 0.5000 1.0000
vt 0.3611 0.0000 1.0000
vt 0.3611 0.5000 1.0000
vt 0.4167 0.0000 1.0000
vt 0.4167 0.5000 1.0000
vt 0.4722 0.0000 1.0000
vt 0.4722 0.5000 1.0000
vt 0.5278 0.0000 1.0000
vt 0.5278 0.5000 1.0000
vt 0.5833 0.0000 1.0000
vt 0.5833 0.5000 1.0000
vt 0.6389 0.0000 1.0000
vt 0.6389 0.5000 1.0000
vt 0.6944 0.0000 1.0000
vt 0.6944 0.5000 1.0000
vt 0.8056 1.0000 1.0000
vt 0.7500 1.0000 1.0000
vt 0.8611 1.0000 1.0000
vt 0.9167 1.0000 1.0000
vt 0.9722 1.0000 1.0000
vt 0.0278 1.0000 1.0000
vt -0.0278 1.0000 1.0000
vt 0.0833 1.0000 1.0000
vt 0.1389 1.0000 1.0000
vt 0.1944 1.0000 1.0000
vt 0.2500 1.0000 1.0000
vt 0.3056 1.0000 1.0000
vt 0.3611 1.0000 1.0000
vt 0.4167 1.0000 1.0000
vt 0.4722 1.0000 1.0000
vt 0.5278 1.0000 1.0000
vt 0.5833 1.0000 1.0000
vt 0.6389 1.0000 1.0000
vt 0.6944 1.0000 1.0000
vt 0.9708 1.0000 0.8794
vt 0.9126 1.0000 0.6527
vt 0.8047 1.0000 0.3473
vt 0.6600 1.0000 0.0000
vt 0.4960 1.0000 -0.3473
vt 0.3325 1.0000 -0.6527
vt 0.1891 1.0000 -0.8794
vt 0.0833 1.0000 -1.0000
vt 0.0278 1.0000 -1.0000
vt 0.0292 1.0000 -0.8794
vt 0.0874 1.0000 -0.6527
vt 0.1953 1.0000 -0.3473
# 82 texture coords

o Cylinder001
g Cylinder001
usemtl wire_049103130
s 1
f 1/1/1 2/2/2 3/3/3 4/4/4 5/5/5 6/6/6 7/7/7 8/8/8 9/9/9 10/10/10 11/11/11 12/12/12 13/13/13 14/14/14 15/15/15 16/16/16 17/17/17 18/18/18 
s 8
f 18/18/18 17/17/17 19/19/19 20/20/20 
f 17/17/17 16/16/16 21/21/21 19/19/19 
f 16/16/16 15/15/15 22/22/22 21/21/21 
f 15/15/15 14/14/14 23/23/23 22/22/22 
f 14/24/14 13/25/13 24/26/24 23/27/23 
f 13/25/13 12/28/12 25/29/25 24/26/24 
f 12/28/12 11/30/11 26/31/26 25/29/25 
f 11/30/11 10/32/10 27/33/27 26/31/26 
f 10/32/10 9/34/9 28/35/28 27/33/27 
f 9/34/9 8/36/8 29/37/29 28/35/28 
f 8/36/8 7/38/7 30/39/30 29/37/29 
f 7/38/7 6/40/6 31/41/31 30/39/30 
f 6/40/6 5/42/5 32/43/32 31/41/31 
f 5/42/5 4/44/4 33/45/33 32/43/32 
f 4/44/4 3/46/3 34/47/34 33/45/33 
f 3/46/3 2/48/2 35/49/35 34/47/34 
f 2/48/2 1/50/1 36/51/36 35/49/35 
f 1/50/1 18/18/18 20/20/20 36/51/36 
f 20/20/20 19/19/19 37/52/37 38/53/38 
f 19/19/19 21/21/21 39/54/39 37/52/37 
f 21/21/21 22/22/22 40/55/40 39/54/39 
f 22/22/22 23/23/23 41/56/41 40/55/40 
f 23/27/23 24/26/24 42/57/42 41/58/41 
f 24/26/24 25/29/25 43/59/43 42/57/42 
f 25/29/25 26/31/26 44/60/44 43/59/43 
f 26/31/26 27/33/27 45/61/45 44/60/44 
f 27/33/27 28/35/28 46/62/46 45/61/45 
f 28/35/28 29/37/29 47/63/47 46/62/46 
f 29/37/29 30/39/30 48/64/48 47/63/47 
f 30/39/30 31/41/31 49/65/49 48/64/48 
f 31/41/31 32/43/32 50/66/50 49/65/49 
f 32/43/32 33/45/33 51/67/51 50/66/50 
f 33/45/33 34/47/34 52/68/52 51/67/51 
f 34/47/34 35/49/35 53/69/53 52/68/52 
f 35/49/35 36/51/36 54/70/54 53/69/53 
f 36/51/36 20/20/20 38/53/38 54/70/54 
s 1
f 54/70/54 38/53/38 37/52/37 39/54/39 40/55/40 41/56/41 42/71/42 43/72/43 44/73/44 45/74/45 46/75/46 47/76/47 48/77/48 49/78/49 50/79/50 51/80/51 52/81/52 53/82/53 
# 38 polygons

#
# object Torus001
#

v  -0.0000 0.0385 -0.1969
v  -0.0000 0.0566 -0.1920
v  0.0497 0.0566 -0.1855
v  0.0509 0.0385 -0.1901
v  -0.0000 0.0699 -0.1788
v  0.0463 0.0699 -0.1727
v  -0.0000 0.0747 -0.1607
v  0.0416 0.0747 -0.1552
v  -0.0000 0.0699 -0.1426
v  0.0369 0.0699 -0.1377
v  -0.0000 0.0566 -0.1293
v  0.0335 0.0566 -0.1249
v  -0.0000 0.0385 -0.1245
v  0.0322 0.0385 -0.1203
v  -0.0000 0.0205 -0.1293
v  0.0335 0.0205 -0.1249
v  -0.0000 0.0072 -0.1426
v  0.0369 0.0072 -0.1377
v  -0.0000 0.0024 -0.1607
v  0.0416 0.0024 -0.1552
v  -0.0000 0.0072 -0.1788
v  0.0463 0.0072 -0.1727
v  -0.0000 0.0205 -0.1920
v  0.0497 0.0205 -0.1855
v  0.0960 0.0566 -0.1663
v  0.0984 0.0385 -0.1705
v  0.0894 0.0699 -0.1548
v  0.0803 0.0747 -0.1391
v  0.0713 0.0699 -0.1235
v  0.0647 0.0566 -0.1120
v  0.0622 0.0385 -0.1078
v  0.0647 0.0205 -0.1120
v  0.0713 0.0072 -0.1235
v  0.0803 0.0024 -0.1391
v  0.0894 0.0072 -0.1548
v  0.0960 0.0205 -0.1663
v  0.1358 0.0566 -0.1358
v  0.1392 0.0385 -0.1392
v  0.1264 0.0699 -0.1264
v  0.1136 0.0747 -0.1136
v  0.1008 0.0699 -0.1008
v  0.0915 0.0566 -0.0915
v  0.0880 0.0385 -0.0880
v  0.0915 0.0205 -0.0915
v  0.1008 0.0072 -0.1008
v  0.1136 0.0024 -0.1136
v  0.1264 0.0072 -0.1264
v  0.1358 0.0205 -0.1358
v  0.1663 0.0566 -0.0960
v  0.1705 0.0385 -0.0984
v  0.1548 0.0699 -0.0894
v  0.1391 0.0747 -0.0803
v  0.1235 0.0699 -0.0713
v  0.1120 0.0566 -0.0647
v  0.1078 0.0385 -0.0622
v  0.1120 0.0205 -0.0647
v  0.1235 0.0072 -0.0713
v  0.1391 0.0024 -0.0803
v  0.1548 0.0072 -0.0894
v  0.1663 0.0205 -0.0960
v  0.1855 0.0566 -0.0497
v  0.1901 0.0385 -0.0509
v  0.1727 0.0699 -0.0463
v  0.1552 0.0747 -0.0416
v  0.1377 0.0699 -0.0369
v  0.1249 0.0566 -0.0335
v  0.1203 0.0385 -0.0322
v  0.1249 0.0205 -0.0335
v  0.1377 0.0072 -0.0369
v  0.1552 0.0024 -0.0416
v  0.1727 0.0072 -0.0463
v  0.1855 0.0205 -0.0497
v  0.1920 0.0566 0.0000
v  0.1969 0.0385 0.0000
v  0.1788 0.0699 0.0000
v  0.1607 0.0747 0.0000
v  0.1426 0.0699 0.0000
v  0.1293 0.0566 0.0000
v  0.1245 0.0385 0.0000
v  0.1293 0.0205 0.0000
v  0.1426 0.0072 0.0000
v  0.1607 0.0024 0.0000
v  0.1788 0.0072 0.0000
v  0.1920 0.0205 0.0000
v  0.1855 0.0566 0.0497
v  0.1901 0.0385 0.0509
v  0.1727 0.0699 0.0463
v  0.1552 0.0747 0.0416
v  0.1377 0.0699 0.0369
v  0.1249 0.0566 0.0335
v  0.1203 0.0385 0.0322
v  0.1249 0.0205 0.0335
v  0.1377 0.0072 0.0369
v  0.1552 0.0024 0.0416
v  0.1727 0.0072 0.0463
v  0.1855 0.0205 0.0497
v  0.1663 0.0566 0.0960
v  0.1705 0.0385 0.0984
v  0.1548 0.0699 0.0894
v  0.1391 0.0747 0.0803
v  0.1235 0.0699 0.0713
v  0.1120 0.0566 0.0647
v  0.1078 0.0385 0.0622
v  0.1120 0.0205 0.0647
v  0.1235 0.0072 0.0713
v  0.1391 0.0024 0.0803
v  0.1548 0.0072 0.0894
v  0.1663 0.0205 0.0960
v  0.1358 0.0566 0.1358
v  0.1392 0.0385 0.1392
v  0.1264 0.0699 0.1264
v  0.1136 0.0747 0.1136
v  0.1008 0.0699 0.1008
v  0.0915 0.0566 0.0915
v  0.0880 0.0385 0.0880
v  0.0915 0.0205 0.0915
v  0.1008 0.0072 0.1008
v  0.1136 0.0024 0.1136
v  0.1264 0.0072 0.1264
v  0.1358 0.0205 0.1358
v  0.0960 0.0566 0.1663
v  0.0984 0.0385 0.1705
v  0.0894 0.0699 0.1548
v  0.0803 0.0747 0.1391
v  0.0713 0.0699 0.1235
v  0.0647 0.0566 0.1120
v  0.0622 0.0385 0.1078
v  0.0647 0.0205 0.1120
v  0.0713 0.0072 0.1235
v  0.0803 0.0024 0.1391
v  0.0894 0.0072 0.1548
v  0.0960 0.0205 0.1663
v  0.0497 0.0566 0.1855
v  0.0509 0.0385 0.1901
v  0.0463 0.0699 0.1727
v  0.0416 0.0747 0.1552
v  0.0369 0.0699 0.1377
v  0.0335 0.0566 0.1249
v  0.0322 0.0385 0.1203
v  0.0335 0.0205 0.1249
v  0.0369 0.0072 0.1377
v  0.0416 0.0024 0.1552
v  0.0463 0.0072 0.1727
v  0.0497 0.0205 0.1855
v  0.0000 0.0566 0.1920
v  0.0000 0.0385 0.1969
v  0.0000 0.0699 0.1788
v  0.0000 0.0747 0.1607
v  0.0000 0.0699 0.1426
v  0.0000 0.0566 0.1293
v  0.0000 0.0385 0.1245
v  0.0000 0.0205 0.1293
v  0.0000 0.0072 0.1426
v  0.0000 0.0024 0.1607
v  0.0000 0.0072 0.1788
v  0.0000 0.0205 0.1920
v  -0.0497 0.0566 0.1855
v  -0.0509 0.0385 0.1901
v  -0.0463 0.0699 0.1727
v  -0.0416 0.0747 0.1552
v  -0.0369 0.0699 0.1377
v  -0.0335 0.0566 0.1249
v  -0.0322 0.0385 0.1203
v  -0.0335 0.0205 0.1249
v  -0.0369 0.0072 0.1377
v  -0.0416 0.0024 0.1552
v  -0.0463 0.0072 0.1727
v  -0.0497 0.0205 0.1855
v  -0.0960 0.0566 0.1663
v  -0.0984 0.0385 0.1705
v  -0.0894 0.0699 0.1548
v  -0.0803 0.0747 0.1391
v  -0.0713 0.0699 0.1235
v  -0.0647 0.0566 0.1120
v  -0.0622 0.0385 0.1078
v  -0.0647 0.0205 0.1120
v  -0.0713 0.0072 0.1235
v  -0.0803 0.0024 0.1391
v  -0.0894 0.0072 0.1548
v  -0.0960 0.0205 0.1663
v  -0.1358 0.0566 0.1358
v  -0.1392 0.0385 0.1392
v  -0.1264 0.0699 0.1264
v  -0.1136 0.0747 0.1136
v  -0.1008 0.0699 0.1008
v  -0.0915 0.0566 0.0915
v  -0.0880 0.0385 0.0880
v  -0.0915 0.0205 0.0915
v  -0.1008 0.0072 0.1008
v  -0.1136 0.0024 0.1136
v  -0.1264 0.0072 0.1264
v  -0.1358 0.0205 0.1358
v  -0.1663 0.0566 0.0960
v  -0.1705 0.0385 0.0984
v  -0.1548 0.0699 0.0894
v  -0.1391 0.0747 0.0803
v  -0.1235 0.0699 0.0713
v  -0.1120 0.0566 0.0647
v  -0.1078 0.0385 0.0622
v  -0.1120 0.0205 0.0647
v  -0.1235 0.0072 0.0713
v  -0.1391 0.0024 0.0803
v  -0.1548 0.0072 0.0894
v  -0.1663 0.0205 0.0960
v  -0.1855 0.0566 0.0497
v  -0.1901 0.0385 0.0509
v  -0.1727 0.0699 0.0463
v  -0.1552 0.0747 0.0416
v  -0.1377 0.0699 0.0369
v  -0.1249 0.0566 0.0335
v  -0.1203 0.0385 0.0322
v  -0.1249 0.0205 0.0335
v  -0.1377 0.0072 0.0369
v  -0.1552 0.0024 0.0416
v  -0.1727 0.0072 0.0463
v  -0.1855 0.0205 0.0497
v  -0.1920 0.0566 0.0000
v  -0.1969 0.0385 0.0000
v  -0.1788 0.0699 0.0000
v  -0.1607 0.0747 0.0000
v  -0.1426 0.0699 0.0000
v  -0.1293 0.0566 0.0000
v  -0.1245 0.0385 0.0000
v  -0.1293 0.0205 0.0000
v  -0.1426 0.0072 0.0000
v  -0.1607 0.0024 0.0000
v  -0.1788 0.0072 0.0000
v  -0.1920 0.0205 0.0000
v  -0.1855 0.0566 -0.0497
v  -0.1901 0.0385 -0.0509
v  -0.1727 0.0699 -0.0463
v  -0.1552 0.0747 -0.0416
v  -0.1377 0.0699 -0.0369
v  -0.1249 0.0566 -0.0335
v  -0.1203 0.0385 -0.0322
v  -0.1249 0.0205 -0.0335
v  -0.1377 0.0072 -0.0369
v  -0.1552 0.0024 -0.0416
v  -0.1727 0.0072 -0.0463
v  -0.1855 0.0205 -0.0497
v  -0.1663 0.0566 -0.0960
v  -0.1705 0.0385 -0.0984
v  -0.1548 0.0699 -0.0894
v  -0.1391 0.0747 -0.0803
v  -0.1235 0.0699 -0.0713
v  -0.1120 0.0566 -0.0647
v  -0.1078 0.0385 -0.0622
v  -0.1120 0.0205 -0.0647
v  -0.1235 0.0072 -0.0713
v  -0.1391 0.0024 -0.0803
v  -0.1548 0.0072 -0.0894
v  -0.1663 0.0205 -0.0960
v  -0.1358 0.0566 -0.1358
v  -0.1392 0.0385 -0.1392
v  -0.1264 0.0699 -0.1264
v  -0.1136 0.0747 -0.1136
v  -0.1008 0.0699 -0.1008
v  -0.0915 0.0566 -0.0915
v  -0.0880 0.0385 -0.0880
v  -0.0915 0.0205 -0.0915
v  -0.1008 0.0072 -0.1008
v  -0.1136 0.0024 -0.1136
v  -0.1264 0.0072 -0.1264
v  -0.1358 0.0205 -0.1358
v  -0.0960 0.0566 -0.1663
v  -0.0984 0.0385 -0.1705
v  -0.0894 0.0699 -0.1548
v  -0.0803 0.0747 -0.1391
v  -0.0713 0.0699 -0.1235
v  -0.0647 0.0566 -0.1120
v  -0.0622 0.0385 -0.1078
v  -0.0647 0.0205 -0.1120
v  -0.0713 0.0072 -0.1235
v  -0.0803 0.0024 -0.1391
v  -0.0894 0.0072 -0.1548
v  -0.0960 0.0205 -0.1663
v  -0.0497 0.0566 -0.1855
v  -0.0509 0.0385 -0.1901
v  -0.0463 0.0699 -0.1727
v  -0.0416 0.0747 -0.1552
v  -0.0369 0.0699 -0.1377
v  -0.0335 0.0566 -0.1249
v  -0.0322 0.0385 -0.1203
v  -0.0335 0.0205 -0.1249
v  -0.0369 0.0072 -0.1377
v  -0.0416 0.0024 -0.1552
v  -0.0463 0.0072 -0.1727
v  -0.0497 0.0205 -0.1855
# 288 vertices

vn -0.0000 -0.0000 -1.0000
vn -0.0000 0.4909 -0.8712
vn 0.2255 0.4909 -0.8415
vn 0.2588 -0.0000 -0.9659
vn -0.0000 0.8567 -0.5158
vn 0.1335 0.8567 -0.4982
vn -0.0000 0.9998 -0.0216
vn 0.0056 0.9998 -0.0208
vn 0.0000 0.8753 0.4835
vn -0.1251 0.8753 0.4670
vn 0.0000 0.5096 0.8604
vn -0.2227 0.5096 0.8311
vn 0.0000 0.0000 1.0000
vn -0.2588 0.0000 0.9659
vn 0.0000 -0.5095 0.8604
vn -0.2227 -0.5095 0.8311
vn 0.0000 -0.8753 0.4835
vn -0.1251 -0.8753 0.4670
vn -0.0000 -0.9998 -0.0216
vn 0.0056 -0.9998 -0.0208
vn -0.0000 -0.8567 -0.5158
vn 0.1335 -0.8567 -0.4982
vn -0.0000 -0.4909 -0.8712
vn 0.2255 -0.4909 -0.8415
vn 0.4356 0.4909 -0.7545
vn 0.5000 -0.0000 -0.8660
vn 0.2579 0.8567 -0.4467
vn 0.0108 0.9998 -0.0187
vn -0.2417 0.8753 0.4187
vn -0.4302 0.5096 0.7452
vn -0.5000 0.0000 0.8660
vn -0.4302 -0.5095 0.7452
vn -0.2417 -0.8753 0.4187
vn 0.0108 -0.9998 -0.0187
vn 0.2579 -0.8567 -0.4467
vn 0.4356 -0.4909 -0.7545
vn 0.6160 0.4909 -0.6160
vn 0.7071 0.0000 -0.7071
vn 0.3647 0.8567 -0.3647
vn 0.0152 0.9998 -0.0152
vn -0.3419 0.8753 0.3419
vn -0.6084 0.5096 0.6084
vn -0.7071 0.0000 0.7071
vn -0.6084 -0.5095 0.6084
vn -0.3419 -0.8753 0.3419
vn 0.0152 -0.9998 -0.0152
vn 0.3647 -0.8567 -0.3647
vn 0.6160 -0.4909 -0.6160
vn 0.7545 0.4909 -0.4356
vn 0.8660 -0.0000 -0.5000
vn 0.4467 0.8567 -0.2579
vn 0.0187 0.9998 -0.0108
vn -0.4187 0.8753 0.2417
vn -0.7452 0.5096 0.4302
vn -0.8660 0.0000 0.5000
vn -0.7452 -0.5095 0.4302
vn -0.4187 -0.8753 0.2417
vn 0.0187 -0.9998 -0.0108
vn 0.4467 -0.8567 -0.2579
vn 0.7545 -0.4909 -0.4356
vn 0.8415 0.4909 -0.2255
vn 0.9659 -0.0000 -0.2588
vn 0.4982 0.8567 -0.1335
vn 0.0208 0.9998 -0.0056
vn -0.4670 0.8753 0.1251
vn -0.8311 0.5096 0.2227
vn -0.9659 0.0000 0.2588
vn -0.8311 -0.5095 0.2227
vn -0.4670 -0.8753 0.1251
vn 0.0208 -0.9998 -0.0056
vn 0.4982 -0.8567 -0.1335
vn 0.8415 -0.4909 -0.2255
vn 0.8712 0.4909 0.0000
vn 1.0000 -0.0000 -0.0000
vn 0.5158 0.8567 -0.0000
vn 0.0216 0.9998 -0.0000
vn -0.4835 0.8753 -0.0000
vn -0.8604 0.5096 -0.0000
vn -1.0000 0.0000 -0.0000
vn -0.8604 -0.5095 0.0000
vn -0.4835 -0.8753 -0.0000
vn 0.0216 -0.9998 -0.0000
vn 0.5158 -0.8567 0.0000
vn 0.8712 -0.4909 0.0000
vn 0.8415 0.4909 0.2255
vn 0.9659 -0.0000 0.2588
vn 0.4982 0.8567 0.1335
vn 0.0208 0.9998 0.0056
vn -0.4670 0.8753 -0.1251
vn -0.8311 0.5096 -0.2227
vn -0.9659 0.0000 -0.2588
vn -0.8311 -0.5095 -0.2227
vn -0.4670 -0.8753 -0.1251
vn 0.0208 -0.9998 0.0056
vn 0.4982 -0.8567 0.1335
vn 0.8415 -0.4909 0.2255
vn 0.7545 0.4909 0.4356
vn 0.8660 -0.0000 0.5000
vn 0.4467 0.8567 0.2579
vn 0.0187 0.9998 0.0108
vn -0.4187 0.8753 -0.2417
vn -0.7452 0.5096 -0.4302
vn -0.8660 0.0000 -0.5000
vn -0.7452 -0.5095 -0.4302
vn -0.4187 -0.8753 -0.2417
vn 0.0187 -0.9998 0.0108
vn 0.4467 -0.8567 0.2579
vn 0.7545 -0.4909 0.4356
vn 0.6160 0.4909 0.6160
vn 0.7071 0.0000 0.7071
vn 0.3647 0.8567 0.3647
vn 0.0152 0.9998 0.0152
vn -0.3419 0.8753 -0.3419
vn -0.6084 0.5096 -0.6084
vn -0.7071 0.0000 -0.7071
vn -0.6084 -0.5095 -0.6084
vn -0.3419 -0.8753 -0.3419
vn 0.0152 -0.9998 0.0152
vn 0.3647 -0.8567 0.3647
vn 0.6160 -0.4909 0.6160
vn 0.4356 0.4909 0.7545
vn 0.5000 -0.0000 0.8660
vn 0.2579 0.8567 0.4467
vn 0.0108 0.9998 0.0187
vn -0.2417 0.8753 -0.4187
vn -0.4302 0.5096 -0.7452
vn -0.5000 0.0000 -0.8660
vn -0.4302 -0.5095 -0.7452
vn -0.2417 -0.8753 -0.4187
vn 0.0108 -0.9998 0.0187
vn 0.2579 -0.8567 0.4467
vn 0.4356 -0.4909 0.7545
vn 0.2255 0.4909 0.8415
vn 0.2588 -0.0000 0.9659
vn 0.1335 0.8567 0.4982
vn 0.0056 0.9998 0.0208
vn -0.1251 0.8753 -0.4670
vn -0.2227 0.5096 -0.8311
vn -0.2588 0.0000 -0.9659
vn -0.2227 -0.5095 -0.8311
vn -0.1251 -0.8753 -0.4670
vn 0.0056 -0.9998 0.0208
vn 0.1335 -0.8567 0.4982
vn 0.2255 -0.4909 0.8415
vn 0.0000 0.4909 0.8712
vn 0.0000 -0.0000 1.0000
vn 0.0000 0.8567 0.5158
vn 0.0000 0.9998 0.0216
vn -0.0000 0.8753 -0.4835
vn -0.0000 0.5096 -0.8604
vn -0.0000 0.0000 -1.0000
vn -0.0000 -0.5095 -0.8604
vn -0.0000 -0.8753 -0.4835
vn 0.0000 -0.9998 0.0216
vn 0.0000 -0.8567 0.5158
vn 0.0000 -0.4909 0.8712
vn -0.2255 0.4909 0.8415
vn -0.2588 -0.0000 0.9659
vn -0.1335 0.8567 0.4982
vn -0.0056 0.9998 0.0208
vn 0.1251 0.8753 -0.4670
vn 0.2227 0.5096 -0.8311
vn 0.2588 0.0000 -0.9659
vn 0.2227 -0.5095 -0.8311
vn 0.1251 -0.8753 -0.4670
vn -0.0056 -0.9998 0.0208
vn -0.1335 -0.8567 0.4982
vn -0.2255 -0.4909 0.8415
vn -0.4356 0.4909 0.7545
vn -0.5000 -0.0000 0.8660
vn -0.2579 0.8567 0.4467
vn -0.0108 0.9998 0.0187
vn 0.2417 0.8753 -0.4187
vn 0.4302 0.5096 -0.7452
vn 0.5000 0.0000 -0.8660
vn 0.4302 -0.5095 -0.7452
vn 0.2417 -0.8753 -0.4187
vn -0.0108 -0.9998 0.0187
vn -0.2579 -0.8567 0.4467
vn -0.4356 -0.4909 0.7545
vn -0.6160 0.4909 0.6160
vn -0.7071 -0.0000 0.7071
vn -0.3647 0.8567 0.3647
vn -0.0152 0.9998 0.0152
vn 0.3419 0.8753 -0.3419
vn 0.6084 0.5096 -0.6084
vn 0.6084 -0.5095 -0.6084
vn 0.3419 -0.8753 -0.3419
vn -0.0152 -0.9998 0.0152
vn -0.3647 -0.8567 0.3647
vn -0.6160 -0.4909 0.6160
vn -0.7545 0.4909 0.4356
vn -0.8660 -0.0000 0.5000
vn -0.4467 0.8567 0.2579
vn -0.0187 0.9998 0.0108
vn 0.4187 0.8753 -0.2417
vn 0.7452 0.5096 -0.4302
vn 0.8660 0.0000 -0.5000
vn 0.7452 -0.5096 -0.4302
vn 0.4187 -0.8753 -0.2417
vn -0.0187 -0.9998 0.0108
vn -0.4467 -0.8567 0.2579
vn -0.7545 -0.4909 0.4356
vn -0.8415 0.4909 0.2255
vn -0.9659 -0.0000 0.2588
vn -0.4982 0.8567 0.1335
vn -0.0208 0.9998 0.0056
vn 0.4670 0.8753 -0.1251
vn 0.8311 0.5096 -0.2227
vn 0.9659 0.0000 -0.2588
vn 0.8311 -0.5095 -0.2227
vn 0.4670 -0.8753 -0.1251
vn -0.0208 -0.9998 0.0056
vn -0.4982 -0.8567 0.1335
vn -0.8415 -0.4909 0.2255
vn -0.8712 0.4909 0.0000
vn -1.0000 -0.0000 0.0000
vn -0.5158 0.8567 0.0000
vn -0.0216 0.9998 0.0000
vn 0.4835 0.8753 -0.0000
vn 0.8604 0.5096 -0.0000
vn 1.0000 0.0000 -0.0000
vn 0.8604 -0.5095 -0.0000
vn 0.4835 -0.8753 -0.0000
vn -0.0216 -0.9998 0.0000
vn -0.5158 -0.8567 0.0000
vn -0.8712 -0.4909 0.0000
vn -0.8415 0.4909 -0.2255
vn -0.9659 -0.0000 -0.2588
vn -0.4982 0.8567 -0.1335
vn -0.0208 0.9998 -0.0056
vn 0.4670 0.8753 0.1251
vn 0.8311 0.5096 0.2227
vn 0.9659 0.0000 0.2588
vn 0.8311 -0.5095 0.2227
vn 0.4670 -0.8753 0.1251
vn -0.0208 -0.9998 -0.0056
vn -0.4982 -0.8567 -0.1335
vn -0.8415 -0.4909 -0.2255
vn -0.7545 0.4909 -0.4356
vn -0.4467 0.8567 -0.2579
vn -0.0187 0.9998 -0.0108
vn 0.4187 0.8753 0.2417
vn 0.7452 0.5096 0.4302
vn 0.8660 0.0000 0.5000
vn 0.7452 -0.5095 0.4302
vn 0.4187 -0.8753 0.2417
vn -0.0187 -0.9998 -0.0108
vn -0.4467 -0.8567 -0.2579
vn -0.7545 -0.4909 -0.4356
vn -0.6160 0.4909 -0.6160
vn -0.7071 -0.0000 -0.7071
vn -0.3647 0.8567 -0.3647
vn -0.0152 0.9998 -0.0152
vn 0.3419 0.8753 0.3419
vn 0.6084 0.5096 0.6084
vn 0.6084 -0.5095 0.6084
vn 0.3419 -0.8753 0.3419
vn -0.0152 -0.9998 -0.0152
vn -0.3647 -0.8567 -0.3647
vn -0.6160 -0.4909 -0.6160
vn -0.4356 0.4909 -0.7545
vn -0.5000 -0.0000 -0.8660
vn -0.2579 0.8567 -0.4467
vn -0.0108 0.9998 -0.0187
vn 0.2417 0.8753 0.4187
vn 0.4302 0.5096 0.7452
vn 0.5000 0.0000 0.8660
vn 0.4302 -0.5095 0.7452
vn 0.2417 -0.8753 0.4187
vn -0.0108 -0.9998 -0.0187
vn -0.2579 -0.8567 -0.4467
vn -0.4356 -0.4909 -0.7545
vn -0.2255 0.4909 -0.8415
vn -0.2588 -0.0000 -0.9659
vn -0.1335 0.8567 -0.4982
vn -0.0056 0.9998 -0.0208
vn 0.1251 0.8753 0.4670
vn 0.2227 0.5096 0.8311
vn 0.2588 0.0000 0.9659
vn 0.2227 -0.5095 0.8311
vn 0.1251 -0.8753 0.4670
vn -0.0056 -0.9998 -0.0208
vn -0.1335 -0.8567 -0.4982
vn -0.2255 -0.4909 -0.8415
# 285 vertex normals

vt 0.0000 0.0000 0.0000
vt 0.0833 0.0000 0.0000
vt 0.0833 0.0417 0.0000
vt 0.0000 0.0417 0.0000
vt 0.1667 0.0000 0.0000
vt 0.1667 0.0417 0.0000
vt 0.2500 0.0000 0.0000
vt 0.2500 0.0417 0.0000
vt 0.3333 0.0000 0.0000
vt 0.3333 0.0417 0.0000
vt 0.4167 0.0000 0.0000
vt 0.4167 0.0417 0.0000
vt 0.5000 0.0000 0.0000
vt 0.5000 0.0417 0.0000
vt 0.5833 0.0000 0.0000
vt 0.5833 0.0417 0.0000
vt 0.6667 0.0000 0.0000
vt 0.6667 0.0417 0.0000
vt 0.7500 0.0000 0.0000
vt 0.7500 0.0417 0.0000
vt 0.8333 0.0000 0.0000
vt 0.8333 0.0417 0.0000
vt 0.9167 0.0000 0.0000
vt 0.9167 0.0417 0.0000
vt 1.0000 0.0000 0.0000
vt 1.0000 0.0417 0.0000
vt 0.0833 0.0833 0.0000
vt 0.0000 0.0833 0.0000
vt 0.1667 0.0833 0.0000
vt 0.2500 0.0833 0.0000
vt 0.3333 0.0833 0.0000
vt 0.4167 0.0833 0.0000
vt 0.5000 0.0833 0.0000
vt 0.5833 0.0833 0.0000
vt 0.6667 0.0833 0.0000
vt 0.7500 0.0833 0.0000
vt 0.8333 0.0833 0.0000
vt 0.9167 0.0833 0.0000
vt 1.0000 0.0833 0.0000
vt 0.0833 0.1250 0.0000
vt 0.0000 0.1250 0.0000
vt 0.1667 0.1250 0.0000
vt 0.2500 0.1250 0.0000
vt 0.3333 0.1250 0.0000
vt 0.4167 0.1250 0.0000
vt 0.5000 0.1250 0.0000
vt 0.5833 0.1250 0.0000
vt 0.6667 0.1250 0.0000
vt 0.7500 0.1250 0.0000
vt 0.8333 0.1250 0.0000
vt 0.9167 0.1250 0.0000
vt 1.0000 0.1250 0.0000
vt 0.0833 0.1667 0.0000
vt 0.0000 0.1667 0.0000
vt 0.1667 0.1667 0.0000
vt 0.2500 0.1667 0.0000
vt 0.3333 0.1667 0.0000
vt 0.4167 0.1667 0.0000
vt 0.5000 0.1667 0.0000
vt 0.5833 0.1667 0.0000
vt 0.6667 0.1667 0.0000
vt 0.7500 0.1667 0.0000
vt 0.8333 0.1667 0.0000
vt 0.9167 0.1667 0.0000
vt 1.0000 0.1667 0.0000
vt 0.0833 0.2083 0.0000
vt 0.0000 0.2083 0.0000
vt 0.1667 0.2083 0.0000
vt 0.2500 0.2083 0.0000
vt 0.3333 0.2083 0.0000
vt 0.4167 0.2083 0.0000
vt 0.5000 0.2083 0.0000
vt 0.5833 0.2083 0.0000
vt 0.6667 0.2083 0.0000
vt 0.7500 0.2083 0.0000
vt 0.8333 0.2083 0.0000
vt 0.9167 0.2083 0.0000
vt 1.0000 0.2083 0.0000
vt 0.0833 0.2500 0.0000
vt 0.0000 0.2500 0.0000
vt 0.1667 0.2500 0.0000
vt 0.2500 0.2500 0.0000
vt 0.3333 0.2500 0.0000
vt 0.4167 0.2500 0.0000
vt 0.5000 0.2500 0.0000
vt 0.5833 0.2500 0.0000
vt 0.6667 0.2500 0.0000
vt 0.7500 0.2500 0.0000
vt 0.8333 0.2500 0.0000
vt 0.9167 0.2500 0.0000
vt 1.0000 0.2500 0.0000
vt 0.0833 0.2917 0.0000
vt 0.0000 0.2917 0.0000
vt 0.1667 0.2917 0.0000
vt 0.2500 0.2917 0.0000
vt 0.3333 0.2917 0.0000
vt 0.4167 0.2917 0.0000
vt 0.5000 0.2917 0.0000
vt 0.5833 0.2917 0.0000
vt 0.6667 0.2917 0.0000
vt 0.7500 0.2917 0.0000
vt 0.8333 0.2917 0.0000
vt 0.9167 0.2917 0.0000
vt 1.0000 0.2917 0.0000
vt 0.0833 0.3333 0.0000
vt 0.0000 0.3333 0.0000
vt 0.1667 0.3333 0.0000
vt 0.2500 0.3333 0.0000
vt 0.3333 0.3333 0.0000
vt 0.4167 0.3333 0.0000
vt 0.5000 0.3333 0.0000
vt 0.5833 0.3333 0.0000
vt 0.6667 0.3333 0.0000
vt 0.7500 0.3333 0.0000
vt 0.8333 0.3333 0.0000
vt 0.9167 0.3333 0.0000
vt 1.0000 0.3333 0.0000
vt 0.0833 0.3750 0.0000
vt 0.0000 0.3750 0.0000
vt 0.1667 0.3750 0.0000
vt 0.2500 0.3750 0.0000
vt 0.3333 0.3750 0.0000
vt 0.4167 0.3750 0.0000
vt 0.5000 0.3750 0.0000
vt 0.5833 0.3750 0.0000
vt 0.6667 0.3750 0.0000
vt 0.7500 0.3750 0.0000
vt 0.8333 0.3750 0.0000
vt 0.9167 0.3750 0.0000
vt 1.0000 0.3750 0.0000
vt 0.0833 0.4167 0.0000
vt 0.0000 0.4167 0.0000
vt 0.1667 0.4167 0.0000
vt 0.2500 0.4167 0.0000
vt 0.3333 0.4167 0.0000
vt 0.4167 0.4167 0.0000
vt 0.5000 0.4167 0.0000
vt 0.5833 0.4167 0.0000
vt 0.6667 0.4167 0.0000
vt 0.7500 0.4167 0.0000
vt 0.8333 0.4167 0.0000
vt 0.9167 0.4167 0.0000
vt 1.0000 0.4167 0.0000
vt 0.0833 0.4583 0.0000
vt 0.0000 0.4583 0.0000
vt 0.1667 0.4583 0.0000
vt 0.2500 0.4583 0.0000
vt 0.3333 0.4583 0.0000
vt 0.4167 0.4583 0.0000
vt 0.5000 0.4583 0.0000
vt 0.5833 0.4583 0.0000
vt 0.6667 0.4583 0.0000
vt 0.7500 0.4583 0.0000
vt 0.8333 0.4583 0.0000
vt 0.9167 0.4583 0.0000
vt 1.0000 0.4583 0.0000
vt 0.0833 0.5000 0.0000
vt 0.0000 0.5000 0.0000
vt 0.1667 0.5000 0.0000
vt 0.2500 0.5000 0.0000
vt 0.3333 0.5000 0.0000
vt 0.4167 0.5000 0.0000
vt 0.5000 0.5000 0.0000
vt 0.5833 0.5000 0.0000
vt 0.6667 0.5000 0.0000
vt 0.7500 0.5000 0.0000
vt 0.8333 0.5000 0.0000
vt 0.9167 0.5000 0.0000
vt 1.0000 0.5000 0.0000
vt 0.0833 0.5417 0.0000
vt 0.0000 0.5417 0.0000
vt 0.1667 0.5417 0.0000
vt 0.2500 0.5417 0.0000
vt 0.3333 0.5417 0.0000
vt 0.4167 0.5417 0.0000
vt 0.5000 0.5417 0.0000
vt 0.5833 0.5417 0.0000
vt 0.6667 0.5417 0.0000
vt 0.7500 0.5417 0.0000
vt 0.8333 0.5417 0.0000
vt 0.9167 0.5417 0.0000
vt 1.0000 0.5417 0.0000
vt 0.0833 0.5833 0.0000
vt 0.0000 0.5833 0.0000
vt 0.1667 0.5833 0.0000
vt 0.2500 0.5833 0.0000
vt 0.3333 0.5833 0.0000
vt 0.4167 0.5833 0.0000
vt 0.5000 0.5833 0.0000
vt 0.5833 0.5833 0.0000
vt 0.6667 0.5833 0.0000
vt 0.7500 0.5833 0.0000
vt 0.8333 0.5833 0.0000
vt 0.9167 0.5833 0.0000
vt 1.0000 0.5833 0.0000
vt 0.0833 0.6250 0.0000
vt 0.0000 0.6250 0.0000
vt 0.1667 0.6250 0.0000
vt 0.2500 0.6250 0.0000
vt 0.3333 0.6250 0.0000
vt 0.4167 0.6250 0.0000
vt 0.5000 0.6250 0.0000
vt 0.5833 0.6250 0.0000
vt 0.6667 0.6250 0.0000
vt 0.7500 0.6250 0.0000
vt 0.8333 0.6250 0.0000
vt 0.9167 0.6250 0.0000
vt 1.0000 0.6250 0.0000
vt 0.0833 0.6667 0.0000
vt 0.0000 0.6667 0.0000
vt 0.1667 0.6667 0.0000
vt 0.2500 0.6667 0.0000
vt 0.3333 0.6667 0.0000
vt 0.4167 0.6667 0.0000
vt 0.5000 0.6667 0.0000
vt 0.5833 0.6667 0.0000
vt 0.6667 0.6667 0.0000
vt 0.7500 0.6667 0.0000
vt 0.8333 0.6667 0.0000
vt 0.9167 0.6667 0.0000
vt 1.0000 0.6667 0.0000
vt 0.0833 0.7083 0.0000
vt 0.0000 0.7083 0.0000
vt 0.1667 0.7083 0.0000
vt 0.2500 0.7083 0.0000
vt 0.3333 0.7083 0.0000
vt 0.4167 0.7083 0.0000
vt 0.5000 0.7083 0.0000
vt 0.5833 0.7083 0.0000
vt 0.6667 0.7083 0.0000
vt 0.7500 0.7083 0.0000
vt 0.8333 0.7083 0.0000
vt 0.9167 0.7083 0.0000
vt 1.0000 0.7083 0.0000
vt 0.0833 0.7500 0.0000
vt 0.0000 0.7500 0.0000
vt 0.1667 0.7500 0.0000
vt 0.2500 0.7500 0.0000
vt 0.3333 0.7500 0.0000
vt 0.4167 0.7500 0.0000
vt 0.5000 0.7500 0.0000
vt 0.5833 0.7500 0.0000
vt 0.6667 0.7500 0.0000
vt 0.7500 0.7500 0.0000
vt 0.8333 0.7500 0.0000
vt 0.9167 0.7500 0.0000
vt 1.0000 0.7500 0.0000
vt 0.0833 0.7917 0.0000
vt 0.0000 0.7917 0.0000
vt 0.1667 0.7917 0.0000
vt 0.2500 0.7917 0.0000
vt 0.3333 0.7917 0.0000
vt 0.4167 0.7917 0.0000
vt 0.5000 0.7917 0.0000
vt 0.5833 0.7917 0.0000
vt 0.6667 0.7917 0.0000
vt 0.7500 0.7917 0.0000
vt 0.8333 0.7917 0.0000
vt 0.9167 0.7917 0.0000
vt 1.0000 0.7917 0.0000
vt 0.0833 0.8333 0.0000
vt 0.0000 0.8333 0.0000
vt 0.1667 0.8333 0.0000
vt 0.2500 0.8333 0.0000
vt 0.3333 0.8333 0.0000
vt 0.4167 0.8333 0.0000
vt 0.5000 0.8333 0.0000
vt 0.5833 0.8333 0.0000
vt 0.6667 0.8333 0.0000
vt 0.7500 0.8333 0.0000
vt 0.8333 0.8333 0.0000
vt 0.9167 0.8333 0.0000
vt 1.0000 0.8333 0.0000
vt 0.0833 0.8750 0.0000
vt 0.0000 0.8750 0.0000
vt 0.1667 0.8750 0.0000
vt 0.2500 0.8750 0.0000
vt 0.3333 0.8750 0.0000
vt 0.4167 0.8750 0.0000
vt 0.5000 0.8750 0.0000
vt 0.5833 0.8750 0.0000
vt 0.6667 0.8750 0.0000
vt 0.7500 0.8750 0.0000
vt 0.8333 0.8750 0.0000
vt 0.9167 0.8750 0.0000
vt 1.0000 0.8750 0.0000
vt 0.0833 0.9167 0.0000
vt 0.0000 0.9167 0.0000
vt 0.1667 0.9167 0.0000
vt 0.2500 0.9167 0.0000
vt 0.3333 0.9167 0.0000
vt 0.4167 0.9167 0.0000
vt 0.5000 0.9167 0.0000
vt 0.5833 0.9167 0.0000
vt 0.6667 0.9167 0.0000
vt 0.7500 0.9167 0.0000
vt 0.8333 0.9167 0.0000
vt 0.9167 0.9167 0.0000
vt 1.0000 0.9167 0.0000
vt 0.0833 0.9583 0.0000
vt 0.0000 0.9583 0.0000
vt 0.1667 0.9583 0.0000
vt 0.2500 0.9583 0.0000
vt 0.3333 0.9583 0.0000
vt 0.4167 0.9583 0.0000
vt 0.5000 0.9583 0.0000
vt 0.5833 0.9583 0.0000
vt 0.6667 0.9583 0.0000
vt 0.7500 0.9583 0.0000
vt 0.8333 0.9583 0.0000
vt 0.9167 0.9583 0.0000
vt 1.0000 0.9583 0.0000
vt 0.0833 1.0000 0.0000
vt 0.0000 1.0000 0.0000
vt 0.1667 1.0000 0.0000
vt 0.2500 1.0000 0.0000
vt 0.3333 1.0000 0.0000
vt 0.4167 1.0000 0.0000
vt 0.5000 1.0000 0.0000
vt 0.5833 1.0000 0.0000
vt 0.6667 1.0000 0.0000
vt 0.7500 1.0000 0.0000
vt 0.8333 1.0000 0.0000
vt 0.9167 1.0000 0.0000
vt 1.0000 1.0000 0.0000
# 325 texture coords

o Torus001
g Torus001
usemtl wire_178211226
s 1
f 55/83/55 56/84/56 57/85/57 58/86/58 
f 56/84/56 59/87/59 60/88/60 57/85/57 
f 59/87/59 61/89/61 62/90/62 60/88/60 
f 61/89/61 63/91/63 64/92/64 62/90/62 
f 63/91/63 65/93/65 66/94/66 64/92/64 
f 65/93/65 67/95/67 68/96/68 66/94/66 
f 67/95/67 69/97/69 70/98/70 68/96/68 
f 69/97/69 71/99/71 72/100/72 70/98/70 
f 71/99/71 73/101/73 74/102/74 72/100/72 
f 73/101/73 75/103/75 76/104/76 74/102/74 
f 75/103/75 77/105/77 78/106/78 76/104/76 
f 77/105/77 55/107/55 58/108/58 78/106/78 
f 58/86/58 57/85/57 79/109/79 80/110/80 
f 57/85/57 60/88/60 81/111/81 79/109/79 
f 60/88/60 62/90/62 82/112/82 81/111/81 
f 62/90/62 64/92/64 83/113/83 82/112/82 
f 64/92/64 66/94/66 84/114/84 83/113/83 
f 66/94/66 68/96/68 85/115/85 84/114/84 
f 68/96/68 70/98/70 86/116/86 85/115/85 
f 70/98/70 72/100/72 87/117/87 86/116/86 
f 72/100/72 74/102/74 88/118/88 87/117/87 
f 74/102/74 76/104/76 89/119/89 88/118/88 
f 76/104/76 78/106/78 90/120/90 89/119/89 
f 78/106/78 58/108/58 80/121/80 90/120/90 
f 80/110/80 79/109/79 91/122/91 92/123/92 
f 79/109/79 81/111/81 93/124/93 91/122/91 
f 81/111/81 82/112/82 94/125/94 93/124/93 
f 82/112/82 83/113/83 95/126/95 94/125/94 
f 83/113/83 84/114/84 96/127/96 95/126/95 
f 84/114/84 85/115/85 97/128/97 96/127/96 
f 85/115/85 86/116/86 98/129/98 97/128/97 
f 86/116/86 87/117/87 99/130/99 98/129/98 
f 87/117/87 88/118/88 100/131/100 99/130/99 
f 88/118/88 89/119/89 101/132/101 100/131/100 
f 89/119/89 90/120/90 102/133/102 101/132/101 
f 90/120/90 80/121/80 92/134/92 102/133/102 
f 92/123/92 91/122/91 103/135/103 104/136/104 
f 91/122/91 93/124/93 105/137/105 103/135/103 
f 93/124/93 94/125/94 106/138/106 105/137/105 
f 94/125/94 95/126/95 107/139/107 106/138/106 
f 95/126/95 96/127/96 108/140/108 107/139/107 
f 96/127/96 97/128/97 109/141/109 108/140/108 
f 97/128/97 98/129/98 110/142/110 109/141/109 
f 98/129/98 99/130/99 111/143/111 110/142/110 
f 99/130/99 100/131/100 112/144/112 111/143/111 
f 100/131/100 101/132/101 113/145/113 112/144/112 
f 101/132/101 102/133/102 114/146/114 113/145/113 
f 102/133/102 92/134/92 104/147/104 114/146/114 
f 104/136/104 103/135/103 115/148/115 116/149/116 
f 103/135/103 105/137/105 117/150/117 115/148/115 
f 105/137/105 106/138/106 118/151/118 117/150/117 
f 106/138/106 107/139/107 119/152/119 118/151/118 
f 107/139/107 108/140/108 120/153/120 119/152/119 
f 108/140/108 109/141/109 121/154/121 120/153/120 
f 109/141/109 110/142/110 122/155/122 121/154/121 
f 110/142/110 111/143/111 123/156/123 122/155/122 
f 111/143/111 112/144/112 124/157/124 123/156/123 
f 112/144/112 113/145/113 125/158/125 124/157/124 
f 113/145/113 114/146/114 126/159/126 125/158/125 
f 114/146/114 104/147/104 116/160/116 126/159/126 
f 116/149/116 115/148/115 127/161/127 128/162/128 
f 115/148/115 117/150/117 129/163/129 127/161/127 
f 117/150/117 118/151/118 130/164/130 129/163/129 
f 118/151/118 119/152/119 131/165/131 130/164/130 
f 119/152/119 120/153/120 132/166/132 131/165/131 
f 120/153/120 121/154/121 133/167/133 132/166/132 
f 121/154/121 122/155/122 134/168/134 133/167/133 
f 122/155/122 123/156/123 135/169/135 134/168/134 
f 123/156/123 124/157/124 136/170/136 135/169/135 
f 124/157/124 125/158/125 137/171/137 136/170/136 
f 125/158/125 126/159/126 138/172/138 137/171/137 
f 126/159/126 116/160/116 128/173/128 138/172/138 
f 128/162/128 127/161/127 139/174/139 140/175/140 
f 127/161/127 129/163/129 141/176/141 139/174/139 
f 129/163/129 130/164/130 142/177/142 141/176/141 
f 130/164/130 131/165/131 143/178/143 142/177/142 
f 131/165/131 132/166/132 144/179/144 143/178/143 
f 132/166/132 133/167/133 145/180/145 144/179/144 
f 133/167/133 134/168/134 146/181/146 145/180/145 
f 134/168/134 135/169/135 147/182/147 146/181/146 
f 135/169/135 136/170/136 148/183/148 147/182/147 
f 136/170/136 137/171/137 149/184/149 148/183/148 
f 137/171/137 138/172/138 150/185/150 149/184/149 
f 138/172/138 128/173/128 140/186/140 150/185/150 
f 140/175/140 139/174/139 151/187/151 152/188/152 
f 139/174/139 141/176/141 153/189/153 151/187/151 
f 141/176/141 142/177/142 154/190/154 153/189/153 
f 142/177/142 143/178/143 155/191/155 154/190/154 
f 143/178/143 144/179/144 156/192/156 155/191/155 
f 144/179/144 145/180/145 157/193/157 156/192/156 
f 145/180/145 146/181/146 158/194/158 157/193/157 
f 146/181/146 147/182/147 159/195/159 158/194/158 
f 147/182/147 148/183/148 160/196/160 159/195/159 
f 148/183/148 149/184/149 161/197/161 160/196/160 
f 149/184/149 150/185/150 162/198/162 161/197/161 
f 150/185/150 140/186/140 152/199/152 162/198/162 
f 152/188/152 151/187/151 163/200/163 164/201/164 
f 151/187/151 153/189/153 165/202/165 163/200/163 
f 153/189/153 154/190/154 166/203/166 165/202/165 
f 154/190/154 155/191/155 167/204/167 166/203/166 
f 155/191/155 156/192/156 168/205/168 167/204/167 
f 156/192/156 157/193/157 169/206/169 168/205/168 
f 157/193/157 158/194/158 170/207/170 169/206/169 
f 158/194/158 159/195/159 171/208/171 170/207/170 
f 159/195/159 160/196/160 172/209/172 171/208/171 
f 160/196/160 161/197/161 173/210/173 172/209/172 
f 161/197/161 162/198/162 174/211/174 173/210/173 
f 162/198/162 152/199/152 164/212/164 174/211/174 
f 164/201/164 163/200/163 175/213/175 176/214/176 
f 163/200/163 165/202/165 177/215/177 175/213/175 
f 165/202/165 166/203/166 178/216/178 177/215/177 
f 166/203/166 167/204/167 179/217/179 178/216/178 
f 167/204/167 168/205/168 180/218/180 179/217/179 
f 168/205/168 169/206/169 181/219/181 180/218/180 
f 169/206/169 170/207/170 182/220/182 181/219/181 
f 170/207/170 171/208/171 183/221/183 182/220/182 
f 171/208/171 172/209/172 184/222/184 183/221/183 
f 172/209/172 173/210/173 185/223/185 184/222/184 
f 173/210/173 174/211/174 186/224/186 185/223/185 
f 174/211/174 164/212/164 176/225/176 186/224/186 
f 176/214/176 175/213/175 187/226/187 188/227/188 
f 175/213/175 177/215/177 189/228/189 187/226/187 
f 177/215/177 178/216/178 190/229/190 189/228/189 
f 178/216/178 179/217/179 191/230/191 190/229/190 
f 179/217/179 180/218/180 192/231/192 191/230/191 
f 180/218/180 181/219/181 193/232/193 192/231/192 
f 181/219/181 182/220/182 194/233/194 193/232/193 
f 182/220/182 183/221/183 195/234/195 194/233/194 
f 183/221/183 184/222/184 196/235/196 195/234/195 
f 184/222/184 185/223/185 197/236/197 196/235/196 
f 185/223/185 186/224/186 198/237/198 197/236/197 
f 186/224/186 176/225/176 188/238/188 198/237/198 
f 188/227/188 187/226/187 199/239/199 200/240/200 
f 187/226/187 189/228/189 201/241/201 199/239/199 
f 189/228/189 190/229/190 202/242/202 201/241/201 
f 190/229/190 191/230/191 203/243/203 202/242/202 
f 191/230/191 192/231/192 204/244/204 203/243/203 
f 192/231/192 193/232/193 205/245/205 204/244/204 
f 193/232/193 194/233/194 206/246/206 205/245/205 
f 194/233/194 195/234/195 207/247/207 206/246/206 
f 195/234/195 196/235/196 208/248/208 207/247/207 
f 196/235/196 197/236/197 209/249/209 208/248/208 
f 197/236/197 198/237/198 210/250/210 209/249/209 
f 198/237/198 188/238/188 200/251/200 210/250/210 
f 200/240/200 199/239/199 211/252/211 212/253/212 
f 199/239/199 201/241/201 213/254/213 211/252/211 
f 201/241/201 202/242/202 214/255/214 213/254/213 
f 202/242/202 203/243/203 215/256/215 214/255/214 
f 203/243/203 204/244/204 216/257/216 215/256/215 
f 204/244/204 205/245/205 217/258/217 216/257/216 
f 205/245/205 206/246/206 218/259/218 217/258/217 
f 206/246/206 207/247/207 219/260/219 218/259/218 
f 207/247/207 208/248/208 220/261/220 219/260/219 
f 208/248/208 209/249/209 221/262/221 220/261/220 
f 209/249/209 210/250/210 222/263/222 221/262/221 
f 210/250/210 200/251/200 212/264/212 222/263/222 
f 212/253/212 211/252/211 223/265/223 224/266/224 
f 211/252/211 213/254/213 225/267/225 223/265/223 
f 213/254/213 214/255/214 226/268/226 225/267/225 
f 214/255/214 215/256/215 227/269/227 226/268/226 
f 215/256/215 216/257/216 228/270/228 227/269/227 
f 216/257/216 217/258/217 229/271/229 228/270/228 
f 217/258/217 218/259/218 230/272/230 229/271/229 
f 218/259/218 219/260/219 231/273/231 230/272/230 
f 219/260/219 220/261/220 232/274/232 231/273/231 
f 220/261/220 221/262/221 233/275/233 232/274/232 
f 221/262/221 222/263/222 234/276/234 233/275/233 
f 222/263/222 212/264/212 224/277/224 234/276/234 
f 224/266/224 223/265/223 235/278/235 236/279/236 
f 223/265/223 225/267/225 237/280/237 235/278/235 
f 225/267/225 226/268/226 238/281/238 237/280/237 
f 226/268/226 227/269/227 239/282/239 238/281/238 
f 227/269/227 228/270/228 240/283/240 239/282/239 
f 228/270/228 229/271/229 241/284/92 240/283/240 
f 229/271/229 230/272/230 242/285/241 241/284/92 
f 230/272/230 231/273/231 243/286/242 242/285/241 
f 231/273/231 232/274/232 244/287/243 243/286/242 
f 232/274/232 233/275/233 245/288/244 244/287/243 
f 233/275/233 234/276/234 246/289/245 245/288/244 
f 234/276/234 224/277/224 236/290/236 246/289/245 
f 236/279/236 235/278/235 247/291/246 248/292/247 
f 235/278/235 237/280/237 249/293/248 247/291/246 
f 237/280/237 238/281/238 250/294/249 249/293/248 
f 238/281/238 239/282/239 251/295/250 250/294/249 
f 239/282/239 240/283/240 252/296/251 251/295/250 
f 240/283/240 241/284/92 253/297/252 252/296/251 
f 241/284/92 242/285/241 254/298/253 253/297/252 
f 242/285/241 243/286/242 255/299/254 254/298/253 
f 243/286/242 244/287/243 256/300/255 255/299/254 
f 244/287/243 245/288/244 257/301/256 256/300/255 
f 245/288/244 246/289/245 258/302/257 257/301/256 
f 246/289/245 236/290/236 248/303/247 258/302/257 
f 248/292/247 247/291/246 259/304/258 260/305/259 
f 247/291/246 249/293/248 261/306/260 259/304/258 
f 249/293/248 250/294/249 262/307/261 261/306/260 
f 250/294/249 251/295/250 263/308/262 262/307/261 
f 251/295/250 252/296/251 264/309/263 263/308/262 
f 252/296/251 253/297/252 265/310/264 264/309/263 
f 253/297/252 254/298/253 266/311/265 265/310/264 
f 254/298/253 255/299/254 267/312/266 266/311/265 
f 255/299/254 256/300/255 268/313/267 267/312/266 
f 256/300/255 257/301/256 269/314/268 268/313/267 
f 257/301/256 258/302/257 270/315/269 269/314/268 
f 258/302/257 248/303/247 260/316/259 270/315/269 
f 260/305/259 259/304/258 271/317/270 272/318/271 
f 259/304/258 261/306/260 273/319/272 271/317/270 
f 261/306/260 262/307/261 274/320/273 273/319/272 
f 262/307/261 263/308/262 275/321/274 274/320/273 
f 263/308/262 264/309/263 276/322/275 275/321/274 
f 264/309/263 265/310/264 277/323/276 276/322/275 
f 265/310/264 266/311/265 278/324/277 277/323/276 
f 266/311/265 267/312/266 279/325/278 278/324/277 
f 267/312/266 268/313/267 280/326/279 279/325/278 
f 268/313/267 269/314/268 281/327/280 280/326/279 
f 269/314/268 270/315/269 282/328/281 281/327/280 
f 270/315/269 260/316/259 272/329/271 282/328/281 
f 272/318/271 271/317/270 283/330/282 284/331/283 
f 271/317/270 273/319/272 285/332/284 283/330/282 
f 273/319/272 274/320/273 286/333/285 285/332/284 
f 274/320/273 275/321/274 287/334/286 286/333/285 
f 275/321/274 276/322/275 288/335/287 287/334/286 
f 276/322/275 277/323/276 289/336/288 288/335/287 
f 277/323/276 278/324/277 290/337/289 289/336/288 
f 278/324/277 279/325/278 291/338/290 290/337/289 
f 279/325/278 280/326/279 292/339/291 291/338/290 
f 280/326/279 281/327/280 293/340/292 292/339/291 
f 281/327/280 282/328/281 294/341/293 293/340/292 
f 282/328/281 272/329/271 284/342/283 294/341/293 
f 284/331/283 283/330/282 295/343/294 296/344/157 
f 283/330/282 285/332/284 297/345/295 295/343/294 
f 285/332/284 286/333/285 298/346/296 297/345/295 
f 286/333/285 287/334/286 299/347/297 298/346/296 
f 287/334/286 288/335/287 300/348/298 299/347/297 
f 288/335/287 289/336/288 301/349/299 300/348/298 
f 289/336/288 290/337/289 302/350/300 301/349/299 
f 290/337/289 291/338/290 303/351/301 302/350/300 
f 291/338/290 292/339/291 304/352/302 303/351/301 
f 292/339/291 293/340/292 305/353/303 304/352/302 
f 293/340/292 294/341/293 306/354/304 305/353/303 
f 294/341/293 284/342/283 296/355/157 306/354/304 
f 296/344/157 295/343/294 307/356/305 308/357/306 
f 295/343/294 297/345/295 309/358/307 307/356/305 
f 297/345/295 298/346/296 310/359/308 309/358/307 
f 298/346/296 299/347/297 311/360/309 310/359/308 
f 299/347/297 300/348/298 312/361/310 311/360/309 
f 300/348/298 301/349/299 313/362/164 312/361/310 
f 301/349/299 302/350/300 314/363/311 313/362/164 
f 302/350/300 303/351/301 315/364/312 314/363/311 
f 303/351/301 304/352/302 316/365/313 315/364/312 
f 304/352/302 305/353/303 317/366/314 316/365/313 
f 305/353/303 306/354/304 318/367/315 317/366/314 
f 306/354/304 296/355/157 308/368/306 318/367/315 
f 308/357/306 307/356/305 319/369/316 320/370/317 
f 307/356/305 309/358/307 321/371/318 319/369/316 
f 309/358/307 310/359/308 322/372/319 321/371/318 
f 310/359/308 311/360/309 323/373/320 322/372/319 
f 311/360/309 312/361/310 324/374/321 323/373/320 
f 312/361/310 313/362/164 325/375/322 324/374/321 
f 313/362/164 314/363/311 326/376/323 325/375/322 
f 314/363/311 315/364/312 327/377/324 326/376/323 
f 315/364/312 316/365/313 328/378/325 327/377/324 
f 316/365/313 317/366/314 329/379/326 328/378/325 
f 317/366/314 318/367/315 330/380/327 329/379/326 
f 318/367/315 308/368/306 320/381/317 330/380/327 
f 320/370/317 319/369/316 331/382/328 332/383/329 
f 319/369/316 321/371/318 333/384/330 331/382/328 
f 321/371/318 322/372/319 334/385/331 333/384/330 
f 322/372/319 323/373/320 335/386/332 334/385/331 
f 323/373/320 324/374/321 336/387/333 335/386/332 
f 324/374/321 325/375/322 337/388/334 336/387/333 
f 325/375/322 326/376/323 338/389/335 337/388/334 
f 326/376/323 327/377/324 339/390/336 338/389/335 
f 327/377/324 328/378/325 340/391/337 339/390/336 
f 328/378/325 329/379/326 341/392/338 340/391/337 
f 329/379/326 330/380/327 342/393/339 341/392/338 
f 330/380/327 320/381/317 332/394/329 342/393/339 
f 332/383/329 331/382/328 56/395/56 55/396/55 
f 331/382/328 333/384/330 59/397/59 56/395/56 
f 333/384/330 334/385/331 61/398/61 59/397/59 
f 334/385/331 335/386/332 63/399/63 61/398/61 
f 335/386/332 336/387/333 65/400/65 63/399/63 
f 336/387/333 337/388/334 67/401/67 65/400/65 
f 337/388/334 338/389/335 69/402/69 67/401/67 
f 338/389/335 339/390/336 71/403/71 69/402/69 
f 339/390/336 340/391/337 73/404/73 71/403/71 
f 340/391/337 341/392/338 75/405/75 73/404/73 
f 341/392/338 342/393/339 77/406/77 75/405/75 
f 342/393/339 332/394/329 55/407/55 77/406/77 
# 288 polygons

#
# object Torus002
#

v  -0.0000 2.6822 -0.1969
v  -0.0000 2.7003 -0.1920
v  0.0497 2.7003 -0.1855
v  0.0509 2.6822 -0.1901
v  -0.0000 2.7136 -0.1788
v  0.0463 2.7136 -0.1727
v  -0.0000 2.7184 -0.1607
v  0.0416 2.7184 -0.1552
v  -0.0000 2.7136 -0.1426
v  0.0369 2.7136 -0.1377
v  -0.0000 2.7003 -0.1293
v  0.0335 2.7003 -0.1249
v  -0.0000 2.6822 -0.1245
v  0.0322 2.6822 -0.1203
v  -0.0000 2.6641 -0.1293
v  0.0335 2.6641 -0.1249
v  -0.0000 2.6509 -0.1426
v  0.0369 2.6509 -0.1377
v  -0.0000 2.6461 -0.1607
v  0.0416 2.6461 -0.1552
v  -0.0000 2.6509 -0.1788
v  0.0463 2.6509 -0.1727
v  -0.0000 2.6641 -0.1920
v  0.0497 2.6641 -0.1855
v  0.0960 2.7003 -0.1663
v  0.0984 2.6822 -0.1705
v  0.0894 2.7136 -0.1548
v  0.0803 2.7184 -0.1391
v  0.0713 2.7136 -0.1235
v  0.0647 2.7003 -0.1120
v  0.0622 2.6822 -0.1078
v  0.0647 2.6641 -0.1120
v  0.0713 2.6509 -0.1235
v  0.0803 2.6461 -0.1391
v  0.0894 2.6509 -0.1548
v  0.0960 2.6641 -0.1663
v  0.1358 2.7003 -0.1358
v  0.1392 2.6822 -0.1392
v  0.1264 2.7136 -0.1264
v  0.1136 2.7184 -0.1136
v  0.1008 2.7136 -0.1008
v  0.0915 2.7003 -0.0915
v  0.0880 2.6822 -0.0880
v  0.0915 2.6641 -0.0915
v  0.1008 2.6509 -0.1008
v  0.1136 2.6461 -0.1136
v  0.1264 2.6509 -0.1264
v  0.1358 2.6641 -0.1358
v  0.1663 2.7003 -0.0960
v  0.1705 2.6822 -0.0984
v  0.1548 2.7136 -0.0894
v  0.1391 2.7184 -0.0803
v  0.1235 2.7136 -0.0713
v  0.1120 2.7003 -0.0647
v  0.1078 2.6822 -0.0622
v  0.1120 2.6641 -0.0647
v  0.1235 2.6509 -0.0713
v  0.1391 2.6461 -0.0803
v  0.1548 2.6509 -0.0894
v  0.1663 2.6641 -0.0960
v  0.1855 2.7003 -0.0497
v  0.1901 2.6822 -0.0509
v  0.1727 2.7136 -0.0463
v  0.1552 2.7184 -0.0416
v  0.1377 2.7136 -0.0369
v  0.1249 2.7003 -0.0335
v  0.1203 2.6822 -0.0322
v  0.1249 2.6641 -0.0335
v  0.1377 2.6509 -0.0369
v  0.1552 2.6461 -0.0416
v  0.1727 2.6509 -0.0463
v  0.1855 2.6641 -0.0497
v  0.1920 2.7003 0.0000
v  0.1969 2.6822 0.0000
v  0.1788 2.7136 0.0000
v  0.1607 2.7184 0.0000
v  0.1426 2.7136 0.0000
v  0.1293 2.7003 0.0000
v  0.1245 2.6822 0.0000
v  0.1293 2.6641 0.0000
v  0.1426 2.6509 0.0000
v  0.1607 2.6461 0.0000
v  0.1788 2.6509 0.0000
v  0.1920 2.6641 0.0000
v  0.1855 2.7003 0.0497
v  0.1901 2.6822 0.0509
v  0.1727 2.7136 0.0463
v  0.1552 2.7184 0.0416
v  0.1377 2.7136 0.0369
v  0.1249 2.7003 0.0335
v  0.1203 2.6822 0.0322
v  0.1249 2.6641 0.0335
v  0.1377 2.6509 0.0369
v  0.1552 2.6461 0.0416
v  0.1727 2.6509 0.0463
v  0.1855 2.6641 0.0497
v  0.1663 2.7003 0.0960
v  0.1705 2.6822 0.0984
v  0.1548 2.7136 0.0894
v  0.1391 2.7184 0.0803
v  0.1235 2.7136 0.0713
v  0.1120 2.7003 0.0647
v  0.1078 2.6822 0.0622
v  0.1120 2.6641 0.0647
v  0.1235 2.6509 0.0713
v  0.1391 2.6461 0.0803
v  0.1548 2.6509 0.0894
v  0.1663 2.6641 0.0960
v  0.1358 2.7003 0.1358
v  0.1392 2.6822 0.1392
v  0.1264 2.7136 0.1264
v  0.1136 2.7184 0.1136
v  0.1008 2.7136 0.1008
v  0.0915 2.7003 0.0915
v  0.0880 2.6822 0.0880
v  0.0915 2.6641 0.0915
v  0.1008 2.6509 0.1008
v  0.1136 2.6461 0.1136
v  0.1264 2.6509 0.1264
v  0.1358 2.6641 0.1358
v  0.0960 2.7003 0.1663
v  0.0984 2.6822 0.1705
v  0.0894 2.7136 0.1548
v  0.0803 2.7184 0.1391
v  0.0713 2.7136 0.1235
v  0.0647 2.7003 0.1120
v  0.0622 2.6822 0.1078
v  0.0647 2.6641 0.1120
v  0.0713 2.6509 0.1235
v  0.0803 2.6461 0.1391
v  0.0894 2.6509 0.1548
v  0.0960 2.6641 0.1663
v  0.0497 2.7003 0.1855
v  0.0509 2.6822 0.1901
v  0.0463 2.7136 0.1727
v  0.0416 2.7184 0.1552
v  0.0369 2.7136 0.1377
v  0.0335 2.7003 0.1249
v  0.0322 2.6822 0.1203
v  0.0335 2.6641 0.1249
v  0.0369 2.6509 0.1377
v  0.0416 2.6461 0.1552
v  0.0463 2.6509 0.1727
v  0.0497 2.6641 0.1855
v  0.0000 2.7003 0.1920
v  0.0000 2.6822 0.1969
v  0.0000 2.7136 0.1788
v  0.0000 2.7184 0.1607
v  0.0000 2.7136 0.1426
v  0.0000 2.7003 0.1293
v  0.0000 2.6822 0.1245
v  0.0000 2.6641 0.1293
v  0.0000 2.6509 0.1426
v  0.0000 2.6461 0.1607
v  0.0000 2.6509 0.1788
v  0.0000 2.6641 0.1920
v  -0.0497 2.7003 0.1855
v  -0.0509 2.6822 0.1901
v  -0.0463 2.7136 0.1727
v  -0.0416 2.7184 0.1552
v  -0.0369 2.7136 0.1377
v  -0.0335 2.7003 0.1249
v  -0.0322 2.6822 0.1203
v  -0.0335 2.6641 0.1249
v  -0.0369 2.6509 0.1377
v  -0.0416 2.6461 0.1552
v  -0.0463 2.6509 0.1727
v  -0.0497 2.6641 0.1855
v  -0.0960 2.7003 0.1663
v  -0.0984 2.6822 0.1705
v  -0.0894 2.7136 0.1548
v  -0.0803 2.7184 0.1391
v  -0.0713 2.7136 0.1235
v  -0.0647 2.7003 0.1120
v  -0.0622 2.6822 0.1078
v  -0.0647 2.6641 0.1120
v  -0.0713 2.6509 0.1235
v  -0.0803 2.6461 0.1391
v  -0.0894 2.6509 0.1548
v  -0.0960 2.6641 0.1663
v  -0.1358 2.7003 0.1358
v  -0.1392 2.6822 0.1392
v  -0.1264 2.7136 0.1264
v  -0.1136 2.7184 0.1136
v  -0.1008 2.7136 0.1008
v  -0.0915 2.7003 0.0915
v  -0.0880 2.6822 0.0880
v  -0.0915 2.6641 0.0915
v  -0.1008 2.6509 0.1008
v  -0.1136 2.6461 0.1136
v  -0.1264 2.6509 0.1264
v  -0.1358 2.6641 0.1358
v  -0.1663 2.7003 0.0960
v  -0.1705 2.6822 0.0984
v  -0.1548 2.7136 0.0894
v  -0.1391 2.7184 0.0803
v  -0.1235 2.7136 0.0713
v  -0.1120 2.7003 0.0647
v  -0.1078 2.6822 0.0622
v  -0.1120 2.6641 0.0647
v  -0.1235 2.6509 0.0713
v  -0.1391 2.6461 0.0803
v  -0.1548 2.6509 0.0894
v  -0.1663 2.6641 0.0960
v  -0.1855 2.7003 0.0497
v  -0.1901 2.6822 0.0509
v  -0.1727 2.7136 0.0463
v  -0.1552 2.7184 0.0416
v  -0.1377 2.7136 0.0369
v  -0.1249 2.7003 0.0335
v  -0.1203 2.6822 0.0322
v  -0.1249 2.6641 0.0335
v  -0.1377 2.6509 0.0369
v  -0.1552 2.6461 0.0416
v  -0.1727 2.6509 0.0463
v  -0.1855 2.6641 0.0497
v  -0.1920 2.7003 0.0000
v  -0.1969 2.6822 0.0000
v  -0.1788 2.7136 0.0000
v  -0.1607 2.7184 0.0000
v  -0.1426 2.7136 0.0000
v  -0.1293 2.7003 0.0000
v  -0.1245 2.6822 0.0000
v  -0.1293 2.6641 0.0000
v  -0.1426 2.6509 0.0000
v  -0.1607 2.6461 0.0000
v  -0.1788 2.6509 0.0000
v  -0.1920 2.6641 0.0000
v  -0.1855 2.7003 -0.0497
v  -0.1901 2.6822 -0.0509
v  -0.1727 2.7136 -0.0463
v  -0.1552 2.7184 -0.0416
v  -0.1377 2.7136 -0.0369
v  -0.1249 2.7003 -0.0335
v  -0.1203 2.6822 -0.0322
v  -0.1249 2.6641 -0.0335
v  -0.1377 2.6509 -0.0369
v  -0.1552 2.6461 -0.0416
v  -0.1727 2.6509 -0.0463
v  -0.1855 2.6641 -0.0497
v  -0.1663 2.7003 -0.0960
v  -0.1705 2.6822 -0.0984
v  -0.1548 2.7136 -0.0894
v  -0.1391 2.7184 -0.0803
v  -0.1235 2.7136 -0.0713
v  -0.1120 2.7003 -0.0647
v  -0.1078 2.6822 -0.0622
v  -0.1120 2.6641 -0.0647
v  -0.1235 2.6509 -0.0713
v  -0.1391 2.6461 -0.0803
v  -0.1548 2.6509 -0.0894
v  -0.1663 2.6641 -0.0960
v  -0.1358 2.7003 -0.1358
v  -0.1392 2.6822 -0.1392
v  -0.1264 2.7136 -0.1264
v  -0.1136 2.7184 -0.1136
v  -0.1008 2.7136 -0.1008
v  -0.0915 2.7003 -0.0915
v  -0.0880 2.6822 -0.0880
v  -0.0915 2.6641 -0.0915
v  -0.1008 2.6509 -0.1008
v  -0.1136 2.6461 -0.1136
v  -0.1264 2.6509 -0.1264
v  -0.1358 2.6641 -0.1358
v  -0.0960 2.7003 -0.1663
v  -0.0984 2.6822 -0.1705
v  -0.0894 2.7136 -0.1548
v  -0.0803 2.7184 -0.1391
v  -0.0713 2.7136 -0.1235
v  -0.0647 2.7003 -0.1120
v  -0.0622 2.6822 -0.1078
v  -0.0647 2.6641 -0.1120
v  -0.0713 2.6509 -0.1235
v  -0.0803 2.6461 -0.1391
v  -0.0894 2.6509 -0.1548
v  -0.0960 2.6641 -0.1663
v  -0.0497 2.7003 -0.1855
v  -0.0509 2.6822 -0.1901
v  -0.0463 2.7136 -0.1727
v  -0.0416 2.7184 -0.1552
v  -0.0369 2.7136 -0.1377
v  -0.0335 2.7003 -0.1249
v  -0.0322 2.6822 -0.1203
v  -0.0335 2.6641 -0.1249
v  -0.0369 2.6509 -0.1377
v  -0.0416 2.6461 -0.1552
v  -0.0463 2.6509 -0.1727
v  -0.0497 2.6641 -0.1855
# 288 vertices

vn -0.0000 -0.0000 -1.0000
vn -0.0000 0.4909 -0.8712
vn 0.2255 0.4909 -0.8415
vn 0.2588 -0.0000 -0.9659
vn -0.0000 0.8567 -0.5158
vn 0.1335 0.8567 -0.4982
vn -0.0000 0.9998 -0.0216
vn 0.0056 0.9998 -0.0208
vn 0.0000 0.8753 0.4835
vn -0.1251 0.8753 0.4670
vn 0.0000 0.5096 0.8604
vn -0.2227 0.5096 0.8311
vn 0.0000 0.0000 1.0000
vn -0.2588 0.0000 0.9659
vn 0.0000 -0.5095 0.8604
vn -0.2227 -0.5095 0.8311
vn 0.0000 -0.8753 0.4835
vn -0.1251 -0.8753 0.4670
vn -0.0000 -0.9998 -0.0216
vn 0.0056 -0.9998 -0.0208
vn -0.0000 -0.8567 -0.5158
vn 0.1335 -0.8567 -0.4982
vn -0.0000 -0.4909 -0.8712
vn 0.2255 -0.4909 -0.8415
vn 0.4356 0.4909 -0.7545
vn 0.5000 -0.0000 -0.8660
vn 0.2579 0.8567 -0.4467
vn 0.0108 0.9998 -0.0187
vn -0.2417 0.8753 0.4187
vn -0.4302 0.5096 0.7452
vn -0.5000 0.0000 0.8660
vn -0.4302 -0.5095 0.7452
vn -0.2417 -0.8753 0.4187
vn 0.0108 -0.9998 -0.0187
vn 0.2579 -0.8567 -0.4467
vn 0.4356 -0.4909 -0.7545
vn 0.6160 0.4909 -0.6160
vn 0.7071 0.0000 -0.7071
vn 0.3647 0.8567 -0.3647
vn 0.0152 0.9998 -0.0152
vn -0.3419 0.8753 0.3419
vn -0.6084 0.5096 0.6084
vn -0.7071 0.0000 0.7071
vn -0.6084 -0.5095 0.6084
vn -0.3419 -0.8753 0.3419
vn 0.0152 -0.9998 -0.0152
vn 0.3647 -0.8567 -0.3647
vn 0.6160 -0.4909 -0.6160
vn 0.7545 0.4909 -0.4356
vn 0.8660 -0.0000 -0.5000
vn 0.4467 0.8567 -0.2579
vn 0.0187 0.9998 -0.0108
vn -0.4187 0.8753 0.2417
vn -0.7452 0.5096 0.4302
vn -0.8660 0.0000 0.5000
vn -0.7452 -0.5095 0.4302
vn -0.4187 -0.8753 0.2417
vn 0.0187 -0.9998 -0.0108
vn 0.4467 -0.8567 -0.2579
vn 0.7545 -0.4909 -0.4356
vn 0.8415 0.4909 -0.2255
vn 0.9659 -0.0000 -0.2588
vn 0.4982 0.8567 -0.1335
vn 0.0208 0.9998 -0.0056
vn -0.4670 0.8753 0.1251
vn -0.8311 0.5096 0.2227
vn -0.9659 0.0000 0.2588
vn -0.8311 -0.5095 0.2227
vn -0.4670 -0.8753 0.1251
vn 0.0208 -0.9998 -0.0056
vn 0.4982 -0.8567 -0.1335
vn 0.8415 -0.4909 -0.2255
vn 0.8712 0.4909 0.0000
vn 1.0000 -0.0000 -0.0000
vn 0.5158 0.8567 -0.0000
vn 0.0216 0.9998 -0.0000
vn -0.4835 0.8753 -0.0000
vn -0.8604 0.5096 -0.0000
vn -1.0000 0.0000 -0.0000
vn -0.8604 -0.5095 0.0000
vn -0.4835 -0.8753 -0.0000
vn 0.0216 -0.9998 -0.0000
vn 0.5158 -0.8567 0.0000
vn 0.8712 -0.4909 0.0000
vn 0.8415 0.4909 0.2255
vn 0.9659 -0.0000 0.2588
vn 0.4982 0.8567 0.1335
vn 0.0208 0.9998 0.0056
vn -0.4670 0.8753 -0.1251
vn -0.8311 0.5096 -0.2227
vn -0.9659 0.0000 -0.2588
vn -0.8311 -0.5095 -0.2227
vn -0.4670 -0.8753 -0.1251
vn 0.0208 -0.9998 0.0056
vn 0.4982 -0.8567 0.1335
vn 0.8415 -0.4909 0.2255
vn 0.7545 0.4909 0.4356
vn 0.8660 -0.0000 0.5000
vn 0.4467 0.8567 0.2579
vn 0.0187 0.9998 0.0108
vn -0.4187 0.8753 -0.2417
vn -0.7452 0.5096 -0.4302
vn -0.8660 0.0000 -0.5000
vn -0.7452 -0.5095 -0.4302
vn -0.4187 -0.8753 -0.2417
vn 0.0187 -0.9998 0.0108
vn 0.4467 -0.8567 0.2579
vn 0.7545 -0.4909 0.4356
vn 0.6160 0.4909 0.6160
vn 0.7071 0.0000 0.7071
vn 0.3647 0.8567 0.3647
vn 0.0152 0.9998 0.0152
vn -0.3419 0.8753 -0.3419
vn -0.6084 0.5096 -0.6084
vn -0.7071 0.0000 -0.7071
vn -0.6084 -0.5095 -0.6084
vn -0.3419 -0.8753 -0.3419
vn 0.0152 -0.9998 0.0152
vn 0.3647 -0.8567 0.3647
vn 0.6160 -0.4909 0.6160
vn 0.4356 0.4909 0.7545
vn 0.5000 -0.0000 0.8660
vn 0.2579 0.8567 0.4467
vn 0.0108 0.9998 0.0187
vn -0.2417 0.8753 -0.4187
vn -0.4302 0.5096 -0.7452
vn -0.5000 0.0000 -0.8660
vn -0.4302 -0.5095 -0.7452
vn -0.2417 -0.8753 -0.4187
vn 0.0108 -0.9998 0.0187
vn 0.2579 -0.8567 0.4467
vn 0.4356 -0.4909 0.7545
vn 0.2255 0.4909 0.8415
vn 0.2588 -0.0000 0.9659
vn 0.1335 0.8567 0.4982
vn 0.0056 0.9998 0.0208
vn -0.1251 0.8753 -0.4670
vn -0.2227 0.5096 -0.8311
vn -0.2588 0.0000 -0.9659
vn -0.2227 -0.5095 -0.8311
vn -0.1251 -0.8753 -0.4670
vn 0.0056 -0.9998 0.0208
vn 0.1335 -0.8567 0.4982
vn 0.2255 -0.4909 0.8415
vn 0.0000 0.4909 0.8712
vn 0.0000 -0.0000 1.0000
vn 0.0000 0.8567 0.5158
vn 0.0000 0.9998 0.0216
vn -0.0000 0.8753 -0.4835
vn -0.0000 0.5096 -0.8604
vn -0.0000 0.0000 -1.0000
vn -0.0000 -0.5095 -0.8604
vn -0.0000 -0.8753 -0.4835
vn 0.0000 -0.9998 0.0216
vn 0.0000 -0.8567 0.5158
vn 0.0000 -0.4909 0.8712
vn -0.2255 0.4909 0.8415
vn -0.2588 -0.0000 0.9659
vn -0.1335 0.8567 0.4982
vn -0.0056 0.9998 0.0208
vn 0.1251 0.8753 -0.4670
vn 0.2227 0.5096 -0.8311
vn 0.2588 0.0000 -0.9659
vn 0.2227 -0.5095 -0.8311
vn 0.1251 -0.8753 -0.4670
vn -0.0056 -0.9998 0.0208
vn -0.1335 -0.8567 0.4982
vn -0.2255 -0.4909 0.8415
vn -0.4356 0.4909 0.7545
vn -0.5000 -0.0000 0.8660
vn -0.2579 0.8567 0.4467
vn -0.0108 0.9998 0.0187
vn 0.2417 0.8753 -0.4187
vn 0.4302 0.5096 -0.7452
vn 0.5000 0.0000 -0.8660
vn 0.4302 -0.5095 -0.7452
vn 0.2417 -0.8753 -0.4187
vn -0.0108 -0.9998 0.0187
vn -0.2579 -0.8567 0.4467
vn -0.4356 -0.4909 0.7545
vn -0.6160 0.4909 0.6160
vn -0.7071 -0.0000 0.7071
vn -0.3647 0.8567 0.3647
vn -0.0152 0.9998 0.0152
vn 0.3419 0.8753 -0.3419
vn 0.6084 0.5096 -0.6084
vn 0.6084 -0.5095 -0.6084
vn 0.3419 -0.8753 -0.3419
vn -0.0152 -0.9998 0.0152
vn -0.3647 -0.8567 0.3647
vn -0.6160 -0.4909 0.6160
vn -0.7545 0.4909 0.4356
vn -0.8660 -0.0000 0.5000
vn -0.4467 0.8567 0.2579
vn -0.0187 0.9998 0.0108
vn 0.4187 0.8753 -0.2417
vn 0.7452 0.5096 -0.4302
vn 0.8660 0.0000 -0.5000
vn 0.7452 -0.5096 -0.4302
vn 0.4187 -0.8753 -0.2417
vn -0.0187 -0.9998 0.0108
vn -0.4467 -0.8567 0.2579
vn -0.7545 -0.4909 0.4356
vn -0.8415 0.4909 0.2255
vn -0.9659 -0.0000 0.2588
vn -0.4982 0.8567 0.1335
vn -0.0208 0.9998 0.0056
vn 0.4670 0.8753 -0.1251
vn 0.8311 0.5096 -0.2227
vn 0.9659 0.0000 -0.2588
vn 0.8311 -0.5095 -0.2227
vn 0.4670 -0.8753 -0.1251
vn -0.0208 -0.9998 0.0056
vn -0.4982 -0.8567 0.1335
vn -0.8415 -0.4909 0.2255
vn -0.8712 0.4909 0.0000
vn -1.0000 -0.0000 0.0000
vn -0.5158 0.8567 0.0000
vn -0.0216 0.9998 0.0000
vn 0.4835 0.8753 -0.0000
vn 0.8604 0.5096 -0.0000
vn 1.0000 0.0000 -0.0000
vn 0.8604 -0.5095 -0.0000
vn 0.4835 -0.8753 -0.0000
vn -0.0216 -0.9998 0.0000
vn -0.5158 -0.8567 0.0000
vn -0.8712 -0.4909 0.0000
vn -0.8415 0.4909 -0.2255
vn -0.9659 -0.0000 -0.2588
vn -0.4982 0.8567 -0.1335
vn -0.0208 0.9998 -0.0056
vn 0.4670 0.8753 0.1251
vn 0.8311 0.5096 0.2227
vn 0.9659 0.0000 0.2588
vn 0.8311 -0.5095 0.2227
vn 0.4670 -0.8753 0.1251
vn -0.0208 -0.9998 -0.0056
vn -0.4982 -0.8567 -0.1335
vn -0.8415 -0.4909 -0.2255
vn -0.7545 0.4909 -0.4356
vn -0.4467 0.8567 -0.2579
vn -0.0187 0.9998 -0.0108
vn 0.4187 0.8753 0.2417
vn 0.7452 0.5096 0.4302
vn 0.8660 0.0000 0.5000
vn 0.7452 -0.5095 0.4302
vn 0.4187 -0.8753 0.2417
vn -0.0187 -0.9998 -0.0108
vn -0.4467 -0.8567 -0.2579
vn -0.7545 -0.4909 -0.4356
vn -0.6160 0.4909 -0.6160
vn -0.7071 -0.0000 -0.7071
vn -0.3647 0.8567 -0.3647
vn -0.0152 0.9998 -0.0152
vn 0.3419 0.8753 0.3419
vn 0.6084 0.5096 0.6084
vn 0.6084 -0.5095 0.6084
vn 0.3419 -0.8753 0.3419
vn -0.0152 -0.9998 -0.0152
vn -0.3647 -0.8567 -0.3647
vn -0.6160 -0.4909 -0.6160
vn -0.4356 0.4909 -0.7545
vn -0.5000 -0.0000 -0.8660
vn -0.2579 0.8567 -0.4467
vn -0.0108 0.9998 -0.0187
vn 0.2417 0.8753 0.4187
vn 0.4302 0.5096 0.7452
vn 0.5000 0.0000 0.8660
vn 0.4302 -0.5095 0.7452
vn 0.2417 -0.8753 0.4187
vn -0.0108 -0.9998 -0.0187
vn -0.2579 -0.8567 -0.4467
vn -0.4356 -0.4909 -0.7545
vn -0.2255 0.4909 -0.8415
vn -0.2588 -0.0000 -0.9659
vn -0.1335 0.8567 -0.4982
vn -0.0056 0.9998 -0.0208
vn 0.1251 0.8753 0.4670
vn 0.2227 0.5096 0.8311
vn 0.2588 0.0000 0.9659
vn 0.2227 -0.5095 0.8311
vn 0.1251 -0.8753 0.4670
vn -0.0056 -0.9998 -0.0208
vn -0.1335 -0.8567 -0.4982
vn -0.2255 -0.4909 -0.8415
# 285 vertex normals

vt 0.0000 0.0000 0.0000
vt 0.0833 0.0000 0.0000
vt 0.0833 0.0417 0.0000
vt 0.0000 0.0417 0.0000
vt 0.1667 0.0000 0.0000
vt 0.1667 0.0417 0.0000
vt 0.2500 0.0000 0.0000
vt 0.2500 0.0417 0.0000
vt 0.3333 0.0000 0.0000
vt 0.3333 0.0417 0.0000
vt 0.4167 0.0000 0.0000
vt 0.4167 0.0417 0.0000
vt 0.5000 0.0000 0.0000
vt 0.5000 0.0417 0.0000
vt 0.5833 0.0000 0.0000
vt 0.5833 0.0417 0.0000
vt 0.6667 0.0000 0.0000
vt 0.6667 0.0417 0.0000
vt 0.7500 0.0000 0.0000
vt 0.7500 0.0417 0.0000
vt 0.8333 0.0000 0.0000
vt 0.8333 0.0417 0.0000
vt 0.9167 0.0000 0.0000
vt 0.9167 0.0417 0.0000
vt 1.0000 0.0000 0.0000
vt 1.0000 0.0417 0.0000
vt 0.0833 0.0833 0.0000
vt 0.0000 0.0833 0.0000
vt 0.1667 0.0833 0.0000
vt 0.2500 0.0833 0.0000
vt 0.3333 0.0833 0.0000
vt 0.4167 0.0833 0.0000
vt 0.5000 0.0833 0.0000
vt 0.5833 0.0833 0.0000
vt 0.6667 0.0833 0.0000
vt 0.7500 0.0833 0.0000
vt 0.8333 0.0833 0.0000
vt 0.9167 0.0833 0.0000
vt 1.0000 0.0833 0.0000
vt 0.0833 0.1250 0.0000
vt 0.0000 0.1250 0.0000
vt 0.1667 0.1250 0.0000
vt 0.2500 0.1250 0.0000
vt 0.3333 0.1250 0.0000
vt 0.4167 0.1250 0.0000
vt 0.5000 0.1250 0.0000
vt 0.5833 0.1250 0.0000
vt 0.6667 0.1250 0.0000
vt 0.7500 0.1250 0.0000
vt 0.8333 0.1250 0.0000
vt 0.9167 0.1250 0.0000
vt 1.0000 0.1250 0.0000
vt 0.0833 0.1667 0.0000
vt 0.0000 0.1667 0.0000
vt 0.1667 0.1667 0.0000
vt 0.2500 0.1667 0.0000
vt 0.3333 0.1667 0.0000
vt 0.4167 0.1667 0.0000
vt 0.5000 0.1667 0.0000
vt 0.5833 0.1667 0.0000
vt 0.6667 0.1667 0.0000
vt 0.7500 0.1667 0.0000
vt 0.8333 0.1667 0.0000
vt 0.9167 0.1667 0.0000
vt 1.0000 0.1667 0.0000
vt 0.0833 0.2083 0.0000
vt 0.0000 0.2083 0.0000
vt 0.1667 0.2083 0.0000
vt 0.2500 0.2083 0.0000
vt 0.3333 0.2083 0.0000
vt 0.4167 0.2083 0.0000
vt 0.5000 0.2083 0.0000
vt 0.5833 0.2083 0.0000
vt 0.6667 0.2083 0.0000
vt 0.7500 0.2083 0.0000
vt 0.8333 0.2083 0.0000
vt 0.9167 0.2083 0.0000
vt 1.0000 0.2083 0.0000
vt 0.0833 0.2500 0.0000
vt 0.0000 0.2500 0.0000
vt 0.1667 0.2500 0.0000
vt 0.2500 0.2500 0.0000
vt 0.3333 0.2500 0.0000
vt 0.4167 0.2500 0.0000
vt 0.5000 0.2500 0.0000
vt 0.5833 0.2500 0.0000
vt 0.6667 0.2500 0.0000
vt 0.7500 0.2500 0.0000
vt 0.8333 0.2500 0.0000
vt 0.9167 0.2500 0.0000
vt 1.0000 0.2500 0.0000
vt 0.0833 0.2917 0.0000
vt 0.0000 0.2917 0.0000
vt 0.1667 0.2917 0.0000
vt 0.2500 0.2917 0.0000
vt 0.3333 0.2917 0.0000
vt 0.4167 0.2917 0.0000
vt 0.5000 0.2917 0.0000
vt 0.5833 0.2917 0.0000
vt 0.6667 0.2917 0.0000
vt 0.7500 0.2917 0.0000
vt 0.8333 0.2917 0.0000
vt 0.9167 0.2917 0.0000
vt 1.0000 0.2917 0.0000
vt 0.0833 0.3333 0.0000
vt 0.0000 0.3333 0.0000
vt 0.1667 0.3333 0.0000
vt 0.2500 0.3333 0.0000
vt 0.3333 0.3333 0.0000
vt 0.4167 0.3333 0.0000
vt 0.5000 0.3333 0.0000
vt 0.5833 0.3333 0.0000
vt 0.6667 0.3333 0.0000
vt 0.7500 0.3333 0.0000
vt 0.8333 0.3333 0.0000
vt 0.9167 0.3333 0.0000
vt 1.0000 0.3333 0.0000
vt 0.0833 0.3750 0.0000
vt 0.0000 0.3750 0.0000
vt 0.1667 0.3750 0.0000
vt 0.2500 0.3750 0.0000
vt 0.3333 0.3750 0.0000
vt 0.4167 0.3750 0.0000
vt 0.5000 0.3750 0.0000
vt 0.5833 0.3750 0.0000
vt 0.6667 0.3750 0.0000
vt 0.7500 0.3750 0.0000
vt 0.8333 0.3750 0.0000
vt 0.9167 0.3750 0.0000
vt 1.0000 0.3750 0.0000
vt 0.0833 0.4167 0.0000
vt 0.0000 0.4167 0.0000
vt 0.1667 0.4167 0.0000
vt 0.2500 0.4167 0.0000
vt 0.3333 0.4167 0.0000
vt 0.4167 0.4167 0.0000
vt 0.5000 0.4167 0.0000
vt 0.5833 0.4167 0.0000
vt 0.6667 0.4167 0.0000
vt 0.7500 0.4167 0.0000
vt 0.8333 0.4167 0.0000
vt 0.9167 0.4167 0.0000
vt 1.0000 0.4167 0.0000
vt 0.0833 0.4583 0.0000
vt 0.0000 0.4583 0.0000
vt 0.1667 0.4583 0.0000
vt 0.2500 0.4583 0.0000
vt 0.3333 0.4583 0.0000
vt 0.4167 0.4583 0.0000
vt 0.5000 0.4583 0.0000
vt 0.5833 0.4583 0.0000
vt 0.6667 0.4583 0.0000
vt 0.7500 0.4583 0.0000
vt 0.8333 0.4583 0.0000
vt 0.9167 0.4583 0.0000
vt 1.0000 0.4583 0.0000
vt 0.0833 0.5000 0.0000
vt 0.0000 0.5000 0.0000
vt 0.1667 0.5000 0.0000
vt 0.2500 0.5000 0.0000
vt 0.3333 0.5000 0.0000
vt 0.4167 0.5000 0.0000
vt 0.5000 0.5000 0.0000
vt 0.5833 0.5000 0.0000
vt 0.6667 0.5000 0.0000
vt 0.7500 0.5000 0.0000
vt 0.8333 0.5000 0.0000
vt 0.9167 0.5000 0.0000
vt 1.0000 0.5000 0.0000
vt 0.0833 0.5417 0.0000
vt 0.0000 0.5417 0.0000
vt 0.1667 0.5417 0.0000
vt 0.2500 0.5417 0.0000
vt 0.3333 0.5417 0.0000
vt 0.4167 0.5417 0.0000
vt 0.5000 0.5417 0.0000
vt 0.5833 0.5417 0.0000
vt 0.6667 0.5417 0.0000
vt 0.7500 0.5417 0.0000
vt 0.8333 0.5417 0.0000
vt 0.9167 0.5417 0.0000
vt 1.0000 0.5417 0.0000
vt 0.0833 0.5833 0.0000
vt 0.0000 0.5833 0.0000
vt 0.1667 0.5833 0.0000
vt 0.2500 0.5833 0.0000
vt 0.3333 0.5833 0.0000
vt 0.4167 0.5833 0.0000
vt 0.5000 0.5833 0.0000
vt 0.5833 0.5833 0.0000
vt 0.6667 0.5833 0.0000
vt 0.7500 0.5833 0.0000
vt 0.8333 0.5833 0.0000
vt 0.9167 0.5833 0.0000
vt 1.0000 0.5833 0.0000
vt 0.0833 0.6250 0.0000
vt 0.0000 0.6250 0.0000
vt 0.1667 0.6250 0.0000
vt 0.2500 0.6250 0.0000
vt 0.3333 0.6250 0.0000
vt 0.4167 0.6250 0.0000
vt 0.5000 0.6250 0.0000
vt 0.5833 0.6250 0.0000
vt 0.6667 0.6250 0.0000
vt 0.7500 0.6250 0.0000
vt 0.8333 0.6250 0.0000
vt 0.9167 0.6250 0.0000
vt 1.0000 0.6250 0.0000
vt 0.0833 0.6667 0.0000
vt 0.0000 0.6667 0.0000
vt 0.1667 0.6667 0.0000
vt 0.2500 0.6667 0.0000
vt 0.3333 0.6667 0.0000
vt 0.4167 0.6667 0.0000
vt 0.5000 0.6667 0.0000
vt 0.5833 0.6667 0.0000
vt 0.6667 0.6667 0.0000
vt 0.7500 0.6667 0.0000
vt 0.8333 0.6667 0.0000
vt 0.9167 0.6667 0.0000
vt 1.0000 0.6667 0.0000
vt 0.0833 0.7083 0.0000
vt 0.0000 0.7083 0.0000
vt 0.1667 0.7083 0.0000
vt 0.2500 0.7083 0.0000
vt 0.3333 0.7083 0.0000
vt 0.4167 0.7083 0.0000
vt 0.5000 0.7083 0.0000
vt 0.5833 0.7083 0.0000
vt 0.6667 0.7083 0.0000
vt 0.7500 0.7083 0.0000
vt 0.8333 0.7083 0.0000
vt 0.9167 0.7083 0.0000
vt 1.0000 0.7083 0.0000
vt 0.0833 0.7500 0.0000
vt 0.0000 0.7500 0.0000
vt 0.1667 0.7500 0.0000
vt 0.2500 0.7500 0.0000
vt 0.3333 0.7500 0.0000
vt 0.4167 0.7500 0.0000
vt 0.5000 0.7500 0.0000
vt 0.5833 0.7500 0.0000
vt 0.6667 0.7500 0.0000
vt 0.7500 0.7500 0.0000
vt 0.8333 0.7500 0.0000
vt 0.9167 0.7500 0.0000
vt 1.0000 0.7500 0.0000
vt 0.0833 0.7917 0.0000
vt 0.0000 0.7917 0.0000
vt 0.1667 0.7917 0.0000
vt 0.2500 0.7917 0.0000
vt 0.3333 0.7917 0.0000
vt 0.4167 0.7917 0.0000
vt 0.5000 0.7917 0.0000
vt 0.5833 0.7917 0.0000
vt 0.6667 0.7917 0.0000
vt 0.7500 0.7917 0.0000
vt 0.8333 0.7917 0.0000
vt 0.9167 0.7917 0.0000
vt 1.0000 0.7917 0.0000
vt 0.0833 0.8333 0.0000
vt 0.0000 0.8333 0.0000
vt 0.1667 0.8333 0.0000
vt 0.2500 0.8333 0.0000
vt 0.3333 0.8333 0.0000
vt 0.4167 0.8333 0.0000
vt 0.5000 0.8333 0.0000
vt 0.5833 0.8333 0.0000
vt 0.6667 0.8333 0.0000
vt 0.7500 0.8333 0.0000
vt 0.8333 0.8333 0.0000
vt 0.9167 0.8333 0.0000
vt 1.0000 0.8333 0.0000
vt 0.0833 0.8750 0.0000
vt 0.0000 0.8750 0.0000
vt 0.1667 0.8750 0.0000
vt 0.2500 0.8750 0.0000
vt 0.3333 0.8750 0.0000
vt 0.4167 0.8750 0.0000
vt 0.5000 0.8750 0.0000
vt 0.5833 0.8750 0.0000
vt 0.6667 0.8750 0.0000
vt 0.7500 0.8750 0.0000
vt 0.8333 0.8750 0.0000
vt 0.9167 0.8750 0.0000
vt 1.0000 0.8750 0.0000
vt 0.0833 0.9167 0.0000
vt 0.0000 0.9167 0.0000
vt 0.1667 0.9167 0.0000
vt 0.2500 0.9167 0.0000
vt 0.3333 0.9167 0.0000
vt 0.4167 0.9167 0.0000
vt 0.5000 0.9167 0.0000
vt 0.5833 0.9167 0.0000
vt 0.6667 0.9167 0.0000
vt 0.7500 0.9167 0.0000
vt 0.8333 0.9167 0.0000
vt 0.9167 0.9167 0.0000
vt 1.0000 0.9167 0.0000
vt 0.0833 0.9583 0.0000
vt 0.0000 0.9583 0.0000
vt 0.1667 0.9583 0.0000
vt 0.2500 0.9583 0.0000
vt 0.3333 0.9583 0.0000
vt 0.4167 0.9583 0.0000
vt 0.5000 0.9583 0.0000
vt 0.5833 0.9583 0.0000
vt 0.6667 0.9583 0.0000
vt 0.7500 0.9583 0.0000
vt 0.8333 0.9583 0.0000
vt 0.9167 0.9583 0.0000
vt 1.0000 0.9583 0.0000
vt 0.0833 1.0000 0.0000
vt 0.0000 1.0000 0.0000
vt 0.1667 1.0000 0.0000
vt 0.2500 1.0000 0.0000
vt 0.3333 1.0000 0.0000
vt 0.4167 1.0000 0.0000
vt 0.5000 1.0000 0.0000
vt 0.5833 1.0000 0.0000
vt 0.6667 1.0000 0.0000
vt 0.7500 1.0000 0.0000
vt 0.8333 1.0000 0.0000
vt 0.9167 1.0000 0.0000
vt 1.0000 1.0000 0.0000
# 325 texture coords

o Torus002
g Torus002
usemtl wire_178211226
s 1
f 343/408/340 344/409/341 345/410/342 346/411/343 
f 344/409/341 347/412/344 348/413/345 345/410/342 
f 347/412/344 349/414/346 350/415/347 348/413/345 
f 349/414/346 351/416/348 352/417/349 350/415/347 
f 351/416/348 353/418/350 354/419/351 352/417/349 
f 353/418/350 355/420/352 356/421/353 354/419/351 
f 355/420/352 357/422/354 358/423/355 356/421/353 
f 357/422/354 359/424/356 360/425/357 358/423/355 
f 359/424/356 361/426/358 362/427/359 360/425/357 
f 361/426/358 363/428/360 364/429/361 362/427/359 
f 363/428/360 365/430/362 366/431/363 364/429/361 
f 365/430/362 343/432/340 346/433/343 366/431/363 
f 346/411/343 345/410/342 367/434/364 368/435/365 
f 345/410/342 348/413/345 369/436/366 367/434/364 
f 348/413/345 350/415/347 370/437/367 369/436/366 
f 350/415/347 352/417/349 371/438/368 370/437/367 
f 352/417/349 354/419/351 372/439/369 371/438/368 
f 354/419/351 356/421/353 373/440/370 372/439/369 
f 356/421/353 358/423/355 374/441/371 373/440/370 
f 358/423/355 360/425/357 375/442/372 374/441/371 
f 360/425/357 362/427/359 376/443/373 375/442/372 
f 362/427/359 364/429/361 377/444/374 376/443/373 
f 364/429/361 366/431/363 378/445/375 377/444/374 
f 366/431/363 346/433/343 368/446/365 378/445/375 
f 368/435/365 367/434/364 379/447/376 380/448/377 
f 367/434/364 369/436/366 381/449/378 379/447/376 
f 369/436/366 370/437/367 382/450/379 381/449/378 
f 370/437/367 371/438/368 383/451/380 382/450/379 
f 371/438/368 372/439/369 384/452/381 383/451/380 
f 372/439/369 373/440/370 385/453/382 384/452/381 
f 373/440/370 374/441/371 386/454/383 385/453/382 
f 374/441/371 375/442/372 387/455/384 386/454/383 
f 375/442/372 376/443/373 388/456/385 387/455/384 
f 376/443/373 377/444/374 389/457/386 388/456/385 
f 377/444/374 378/445/375 390/458/387 389/457/386 
f 378/445/375 368/446/365 380/459/377 390/458/387 
f 380/448/377 379/447/376 391/460/388 392/461/389 
f 379/447/376 381/449/378 393/462/390 391/460/388 
f 381/449/378 382/450/379 394/463/391 393/462/390 
f 382/450/379 383/451/380 395/464/392 394/463/391 
f 383/451/380 384/452/381 396/465/393 395/464/392 
f 384/452/381 385/453/382 397/466/394 396/465/393 
f 385/453/382 386/454/383 398/467/395 397/466/394 
f 386/454/383 387/455/384 399/468/396 398/467/395 
f 387/455/384 388/456/385 400/469/397 399/468/396 
f 388/456/385 389/457/386 401/470/398 400/469/397 
f 389/457/386 390/458/387 402/471/399 401/470/398 
f 390/458/387 380/459/377 392/472/389 402/471/399 
f 392/461/389 391/460/388 403/473/400 404/474/401 
f 391/460/388 393/462/390 405/475/402 403/473/400 
f 393/462/390 394/463/391 406/476/403 405/475/402 
f 394/463/391 395/464/392 407/477/404 406/476/403 
f 395/464/392 396/465/393 408/478/405 407/477/404 
f 396/465/393 397/466/394 409/479/406 408/478/405 
f 397/466/394 398/467/395 410/480/407 409/479/406 
f 398/467/395 399/468/396 411/481/408 410/480/407 
f 399/468/396 400/469/397 412/482/409 411/481/408 
f 400/469/397 401/470/398 413/483/410 412/482/409 
f 401/470/398 402/471/399 414/484/411 413/483/410 
f 402/471/399 392/472/389 404/485/401 414/484/411 
f 404/474/401 403/473/400 415/486/412 416/487/413 
f 403/473/400 405/475/402 417/488/414 415/486/412 
f 405/475/402 406/476/403 418/489/415 417/488/414 
f 406/476/403 407/477/404 419/490/416 418/489/415 
f 407/477/404 408/478/405 420/491/417 419/490/416 
f 408/478/405 409/479/406 421/492/418 420/491/417 
f 409/479/406 410/480/407 422/493/419 421/492/418 
f 410/480/407 411/481/408 423/494/420 422/493/419 
f 411/481/408 412/482/409 424/495/421 423/494/420 
f 412/482/409 413/483/410 425/496/422 424/495/421 
f 413/483/410 414/484/411 426/497/423 425/496/422 
f 414/484/411 404/485/401 416/498/413 426/497/423 
f 416/487/413 415/486/412 427/499/424 428/500/425 
f 415/486/412 417/488/414 429/501/426 427/499/424 
f 417/488/414 418/489/415 430/502/427 429/501/426 
f 418/489/415 419/490/416 431/503/428 430/502/427 
f 419/490/416 420/491/417 432/504/429 431/503/428 
f 420/491/417 421/492/418 433/505/430 432/504/429 
f 421/492/418 422/493/419 434/506/431 433/505/430 
f 422/493/419 423/494/420 435/507/432 434/506/431 
f 423/494/420 424/495/421 436/508/433 435/507/432 
f 424/495/421 425/496/422 437/509/434 436/508/433 
f 425/496/422 426/497/423 438/510/435 437/509/434 
f 426/497/423 416/498/413 428/511/425 438/510/435 
f 428/500/425 427/499/424 439/512/436 440/513/437 
f 427/499/424 429/501/426 441/514/438 439/512/436 
f 429/501/426 430/502/427 442/515/439 441/514/438 
f 430/502/427 431/503/428 443/516/440 442/515/439 
f 431/503/428 432/504/429 444/517/441 443/516/440 
f 432/504/429 433/505/430 445/518/442 444/517/441 
f 433/505/430 434/506/431 446/519/443 445/518/442 
f 434/506/431 435/507/432 447/520/444 446/519/443 
f 435/507/432 436/508/433 448/521/445 447/520/444 
f 436/508/433 437/509/434 449/522/446 448/521/445 
f 437/509/434 438/510/435 450/523/447 449/522/446 
f 438/510/435 428/511/425 440/524/437 450/523/447 
f 440/513/437 439/512/436 451/525/448 452/526/449 
f 439/512/436 441/514/438 453/527/450 451/525/448 
f 441/514/438 442/515/439 454/528/451 453/527/450 
f 442/515/439 443/516/440 455/529/452 454/528/451 
f 443/516/440 444/517/441 456/530/453 455/529/452 
f 444/517/441 445/518/442 457/531/454 456/530/453 
f 445/518/442 446/519/443 458/532/455 457/531/454 
f 446/519/443 447/520/444 459/533/456 458/532/455 
f 447/520/444 448/521/445 460/534/457 459/533/456 
f 448/521/445 449/522/446 461/535/458 460/534/457 
f 449/522/446 450/523/447 462/536/459 461/535/458 
f 450/523/447 440/524/437 452/537/449 462/536/459 
f 452/526/449 451/525/448 463/538/460 464/539/461 
f 451/525/448 453/527/450 465/540/462 463/538/460 
f 453/527/450 454/528/451 466/541/463 465/540/462 
f 454/528/451 455/529/452 467/542/464 466/541/463 
f 455/529/452 456/530/453 468/543/465 467/542/464 
f 456/530/453 457/531/454 469/544/466 468/543/465 
f 457/531/454 458/532/455 470/545/467 469/544/466 
f 458/532/455 459/533/456 471/546/468 470/545/467 
f 459/533/456 460/534/457 472/547/469 471/546/468 
f 460/534/457 461/535/458 473/548/470 472/547/469 
f 461/535/458 462/536/459 474/549/471 473/548/470 
f 462/536/459 452/537/449 464/550/461 474/549/471 
f 464/539/461 463/538/460 475/551/472 476/552/473 
f 463/538/460 465/540/462 477/553/474 475/551/472 
f 465/540/462 466/541/463 478/554/475 477/553/474 
f 466/541/463 467/542/464 479/555/476 478/554/475 
f 467/542/464 468/543/465 480/556/477 479/555/476 
f 468/543/465 469/544/466 481/557/478 480/556/477 
f 469/544/466 470/545/467 482/558/479 481/557/478 
f 470/545/467 471/546/468 483/559/480 482/558/479 
f 471/546/468 472/547/469 484/560/481 483/559/480 
f 472/547/469 473/548/470 485/561/482 484/560/481 
f 473/548/470 474/549/471 486/562/483 485/561/482 
f 474/549/471 464/550/461 476/563/473 486/562/483 
f 476/552/473 475/551/472 487/564/484 488/565/485 
f 475/551/472 477/553/474 489/566/486 487/564/484 
f 477/553/474 478/554/475 490/567/487 489/566/486 
f 478/554/475 479/555/476 491/568/488 490/567/487 
f 479/555/476 480/556/477 492/569/489 491/568/488 
f 480/556/477 481/557/478 493/570/490 492/569/489 
f 481/557/478 482/558/479 494/571/491 493/570/490 
f 482/558/479 483/559/480 495/572/492 494/571/491 
f 483/559/480 484/560/481 496/573/493 495/572/492 
f 484/560/481 485/561/482 497/574/494 496/573/493 
f 485/561/482 486/562/483 498/575/495 497/574/494 
f 486/562/483 476/563/473 488/576/485 498/575/495 
f 488/565/485 487/564/484 499/577/496 500/578/497 
f 487/564/484 489/566/486 501/579/498 499/577/496 
f 489/566/486 490/567/487 502/580/499 501/579/498 
f 490/567/487 491/568/488 503/581/500 502/580/499 
f 491/568/488 492/569/489 504/582/501 503/581/500 
f 492/569/489 493/570/490 505/583/502 504/582/501 
f 493/570/490 494/571/491 506/584/503 505/583/502 
f 494/571/491 495/572/492 507/585/504 506/584/503 
f 495/572/492 496/573/493 508/586/505 507/585/504 
f 496/573/493 497/574/494 509/587/506 508/586/505 
f 497/574/494 498/575/495 510/588/507 509/587/506 
f 498/575/495 488/576/485 500/589/497 510/588/507 
f 500/578/497 499/577/496 511/590/508 512/591/509 
f 499/577/496 501/579/498 513/592/510 511/590/508 
f 501/579/498 502/580/499 514/593/511 513/592/510 
f 502/580/499 503/581/500 515/594/512 514/593/511 
f 503/581/500 504/582/501 516/595/513 515/594/512 
f 504/582/501 505/583/502 517/596/514 516/595/513 
f 505/583/502 506/584/503 518/597/515 517/596/514 
f 506/584/503 507/585/504 519/598/516 518/597/515 
f 507/585/504 508/586/505 520/599/517 519/598/516 
f 508/586/505 509/587/506 521/600/518 520/599/517 
f 509/587/506 510/588/507 522/601/519 521/600/518 
f 510/588/507 500/589/497 512/602/509 522/601/519 
f 512/591/509 511/590/508 523/603/520 524/604/521 
f 511/590/508 513/592/510 525/605/522 523/603/520 
f 513/592/510 514/593/511 526/606/523 525/605/522 
f 514/593/511 515/594/512 527/607/524 526/606/523 
f 515/594/512 516/595/513 528/608/525 527/607/524 
f 516/595/513 517/596/514 529/609/377 528/608/525 
f 517/596/514 518/597/515 530/610/526 529/609/377 
f 518/597/515 519/598/516 531/611/527 530/610/526 
f 519/598/516 520/599/517 532/612/528 531/611/527 
f 520/599/517 521/600/518 533/613/529 532/612/528 
f 521/600/518 522/601/519 534/614/530 533/613/529 
f 522/601/519 512/602/509 524/615/521 534/614/530 
f 524/604/521 523/603/520 535/616/531 536/617/532 
f 523/603/520 525/605/522 537/618/533 535/616/531 
f 525/605/522 526/606/523 538/619/534 537/618/533 
f 526/606/523 527/607/524 539/620/535 538/619/534 
f 527/607/524 528/608/525 540/621/536 539/620/535 
f 528/608/525 529/609/377 541/622/537 540/621/536 
f 529/609/377 530/610/526 542/623/538 541/622/537 
f 530/610/526 531/611/527 543/624/539 542/623/538 
f 531/611/527 532/612/528 544/625/540 543/624/539 
f 532/612/528 533/613/529 545/626/541 544/625/540 
f 533/613/529 534/614/530 546/627/542 545/626/541 
f 534/614/530 524/615/521 536/628/532 546/627/542 
f 536/617/532 535/616/531 547/629/543 548/630/544 
f 535/616/531 537/618/533 549/631/545 547/629/543 
f 537/618/533 538/619/534 550/632/546 549/631/545 
f 538/619/534 539/620/535 551/633/547 550/632/546 
f 539/620/535 540/621/536 552/634/548 551/633/547 
f 540/621/536 541/622/537 553/635/549 552/634/548 
f 541/622/537 542/623/538 554/636/550 553/635/549 
f 542/623/538 543/624/539 555/637/551 554/636/550 
f 543/624/539 544/625/540 556/638/552 555/637/551 
f 544/625/540 545/626/541 557/639/553 556/638/552 
f 545/626/541 546/627/542 558/640/554 557/639/553 
f 546/627/542 536/628/532 548/641/544 558/640/554 
f 548/630/544 547/629/543 559/642/555 560/643/556 
f 547/629/543 549/631/545 561/644/557 559/642/555 
f 549/631/545 550/632/546 562/645/558 561/644/557 
f 550/632/546 551/633/547 563/646/559 562/645/558 
f 551/633/547 552/634/548 564/647/560 563/646/559 
f 552/634/548 553/635/549 565/648/561 564/647/560 
f 553/635/549 554/636/550 566/649/562 565/648/561 
f 554/636/550 555/637/551 567/650/563 566/649/562 
f 555/637/551 556/638/552 568/651/564 567/650/563 
f 556/638/552 557/639/553 569/652/565 568/651/564 
f 557/639/553 558/640/554 570/653/566 569/652/565 
f 558/640/554 548/641/544 560/654/556 570/653/566 
f 560/643/556 559/642/555 571/655/567 572/656/568 
f 559/642/555 561/644/557 573/657/569 571/655/567 
f 561/644/557 562/645/558 574/658/570 573/657/569 
f 562/645/558 563/646/559 575/659/571 574/658/570 
f 563/646/559 564/647/560 576/660/572 575/659/571 
f 564/647/560 565/648/561 577/661/573 576/660/572 
f 565/648/561 566/649/562 578/662/574 577/661/573 
f 566/649/562 567/650/563 579/663/575 578/662/574 
f 567/650/563 568/651/564 580/664/576 579/663/575 
f 568/651/564 569/652/565 581/665/577 580/664/576 
f 569/652/565 570/653/566 582/666/578 581/665/577 
f 570/653/566 560/654/556 572/667/568 582/666/578 
f 572/656/568 571/655/567 583/668/579 584/669/442 
f 571/655/567 573/657/569 585/670/580 583/668/579 
f 573/657/569 574/658/570 586/671/581 585/670/580 
f 574/658/570 575/659/571 587/672/582 586/671/581 
f 575/659/571 576/660/572 588/673/583 587/672/582 
f 576/660/572 577/661/573 589/674/584 588/673/583 
f 577/661/573 578/662/574 590/675/585 589/674/584 
f 578/662/574 579/663/575 591/676/586 590/675/585 
f 579/663/575 580/664/576 592/677/587 591/676/586 
f 580/664/576 581/665/577 593/678/588 592/677/587 
f 581/665/577 582/666/578 594/679/589 593/678/588 
f 582/666/578 572/667/568 584/680/442 594/679/589 
f 584/669/442 583/668/579 595/681/590 596/682/591 
f 583/668/579 585/670/580 597/683/592 595/681/590 
f 585/670/580 586/671/581 598/684/593 597/683/592 
f 586/671/581 587/672/582 599/685/594 598/684/593 
f 587/672/582 588/673/583 600/686/595 599/685/594 
f 588/673/583 589/674/584 601/687/449 600/686/595 
f 589/674/584 590/675/585 602/688/596 601/687/449 
f 590/675/585 591/676/586 603/689/597 602/688/596 
f 591/676/586 592/677/587 604/690/598 603/689/597 
f 592/677/587 593/678/588 605/691/599 604/690/598 
f 593/678/588 594/679/589 606/692/600 605/691/599 
f 594/679/589 584/680/442 596/693/591 606/692/600 
f 596/682/591 595/681/590 607/694/601 608/695/602 
f 595/681/590 597/683/592 609/696/603 607/694/601 
f 597/683/592 598/684/593 610/697/604 609/696/603 
f 598/684/593 599/685/594 611/698/605 610/697/604 
f 599/685/594 600/686/595 612/699/606 611/698/605 
f 600/686/595 601/687/449 613/700/607 612/699/606 
f 601/687/449 602/688/596 614/701/608 613/700/607 
f 602/688/596 603/689/597 615/702/609 614/701/608 
f 603/689/597 604/690/598 616/703/610 615/702/609 
f 604/690/598 605/691/599 617/704/611 616/703/610 
f 605/691/599 606/692/600 618/705/612 617/704/611 
f 606/692/600 596/693/591 608/706/602 618/705/612 
f 608/695/602 607/694/601 619/707/613 620/708/614 
f 607/694/601 609/696/603 621/709/615 619/707/613 
f 609/696/603 610/697/604 622/710/616 621/709/615 
f 610/697/604 611/698/605 623/711/617 622/710/616 
f 611/698/605 612/699/606 624/712/618 623/711/617 
f 612/699/606 613/700/607 625/713/619 624/712/618 
f 613/700/607 614/701/608 626/714/620 625/713/619 
f 614/701/608 615/702/609 627/715/621 626/714/620 
f 615/702/609 616/703/610 628/716/622 627/715/621 
f 616/703/610 617/704/611 629/717/623 628/716/622 
f 617/704/611 618/705/612 630/718/624 629/717/623 
f 618/705/612 608/706/602 620/719/614 630/718/624 
f 620/708/614 619/707/613 344/720/341 343/721/340 
f 619/707/613 621/709/615 347/722/344 344/720/341 
f 621/709/615 622/710/616 349/723/346 347/722/344 
f 622/710/616 623/711/617 351/724/348 349/723/346 
f 623/711/617 624/712/618 353/725/350 351/724/348 
f 624/712/618 625/713/619 355/726/352 353/725/350 
f 625/713/619 626/714/620 357/727/354 355/726/352 
f 626/714/620 627/715/621 359/728/356 357/727/354 
f 627/715/621 628/716/622 361/729/358 359/728/356 
f 628/716/622 629/717/623 363/730/360 361/729/358 
f 629/717/623 630/718/624 365/731/362 363/730/360 
f 630/718/624 620/719/614 343/732/340 365/731/362 
# 288 polygons

